<svg width="29" height="33" viewBox="0 0 29 33" fill="none" xmlns="http://www.w3.org/2000/svg">
<rect x="0.400024" y="11.812" width="20.7558" height="20.7558" rx="3.89172" transform="rotate(-7.45329 0.400024 11.812)" fill="#E5EDFF"/>
<g style="mix-blend-mode:multiply">
<path d="M11.8939 3.75C11.8939 3.08594 12.4408 2.5 13.1439 2.5C13.808 2.5 14.3939 3.08594 14.3939 3.75V5H19.3939V3.75C19.3939 3.08594 19.9408 2.5 20.6439 2.5C21.308 2.5 21.8939 3.08594 21.8939 3.75V5H23.7689C24.7845 5 25.6439 5.85938 25.6439 6.875V8.75H8.14392V6.875C8.14392 5.85938 8.96423 5 10.0189 5H11.8939V3.75ZM25.6439 20.625C25.6439 21.6797 24.7845 22.5 23.7689 22.5H10.0189C8.96423 22.5 8.14392 21.6797 8.14392 20.625V10H25.6439V20.625Z" fill="#3874FF"/>
</g>
</svg>
