<svg width="34" height="33" viewBox="0 0 34 33" fill="none" xmlns="http://www.w3.org/2000/svg">
<rect x="0.600098" y="12.2046" width="20.7558" height="20.7558" rx="3.89172" transform="rotate(-7.45329 0.600098 12.2046)" fill="#E5EDFF"/>
<g style="mix-blend-mode:multiply">
<path d="M20.8049 15.3926C18.5784 15.3926 16.7424 13.5957 16.7815 11.3301C16.7815 9.10352 18.5784 7.26758 20.8049 7.26758C23.0315 7.26758 24.8674 9.10352 24.8674 11.3301C24.8674 13.5957 23.0706 15.3926 20.8049 15.3926ZM22.7581 16.6426C25.844 16.6426 28.344 18.9863 28.344 21.877C28.344 22.4629 27.8362 22.8926 27.2112 22.8926H14.4377C13.8127 22.8926 13.344 22.4629 13.344 21.877C13.344 18.9863 15.8049 16.6426 18.8909 16.6426H22.7581ZM28.344 9.14258C26.5862 9.14258 25.219 7.77539 25.219 6.01758C25.219 4.29883 26.5862 2.89258 28.344 2.89258C30.0627 2.89258 31.469 4.29883 31.469 6.01758C31.469 7.77539 30.0627 9.14258 28.344 9.14258ZM15.4924 11.3301C15.4924 12.6582 16.0002 13.8691 16.8206 14.7676H9.00806C8.61743 14.7676 8.34399 14.4551 8.34399 14.0645C8.34399 12.0332 9.86743 10.3926 11.7815 10.3926H14.1643C14.6721 10.3926 15.1409 10.5098 15.5706 10.7441C15.5315 10.9395 15.4924 11.1348 15.4924 11.3301ZM13.344 9.14258C11.5862 9.14258 10.219 7.77539 10.219 6.01758C10.219 4.29883 11.5862 2.89258 13.344 2.89258C15.0627 2.89258 16.469 4.29883 16.469 6.01758C16.469 7.77539 15.0627 9.14258 13.344 9.14258ZM29.8674 10.3926C31.7815 10.3926 33.344 12.0332 33.344 14.0645C33.344 14.4551 33.0315 14.7676 32.6409 14.7676H24.8284C25.6487 13.8691 26.1174 12.6582 26.1174 11.3301C26.1174 11.1348 26.0784 10.9395 26.0784 10.7441C26.5081 10.5488 26.9768 10.3926 27.4846 10.3926H29.8674Z" fill="#3874FF"/>
</g>
</svg>
