<svg width="29" height="33" viewBox="0 0 29 33" fill="none" xmlns="http://www.w3.org/2000/svg">
<rect x="0.200012" y="12.2046" width="20.7558" height="20.7558" rx="3.89172" transform="rotate(-7.45329 0.200012 12.2046)" fill="#E5EDFF"/>
<g style="mix-blend-mode:multiply">
<path d="M16.6939 12.8926C13.9205 12.8926 11.6939 10.666 11.6939 7.89258C11.6939 5.1582 13.9205 2.89258 16.6939 2.89258C19.4283 2.89258 21.6939 5.1582 21.6939 7.89258C21.6939 10.666 19.4283 12.8926 16.6939 12.8926ZM18.647 14.7676C22.397 14.7676 25.4439 17.8145 25.4439 21.5645C25.4439 22.3066 24.8189 22.8926 24.0767 22.8926H9.27203C8.52985 22.8926 7.94391 22.3066 7.94391 21.5645C7.94391 17.8145 10.9517 14.7676 14.7017 14.7676H18.647Z" fill="#3874FF"/>
</g>
</svg>
