<svg width="30" height="34" viewBox="0 0 30 34" fill="none" xmlns="http://www.w3.org/2000/svg">
<rect x="0.800049" y="12.7046" width="20.7558" height="20.7558" rx="3.89172" transform="rotate(-7.45329 0.800049 12.7046)" fill="#E5EDFF"/>
<g style="mix-blend-mode:multiply">
<path d="M9.16895 15.8926C9.16895 13.002 13.1533 6.9082 15.0283 4.17383C15.5361 3.4707 16.5127 3.4707 17.0205 4.17383C18.8955 6.9082 22.9189 13.002 22.9189 15.8926C22.9189 19.7207 19.833 22.7676 16.0439 22.7676C12.2158 22.7676 9.16895 19.7207 9.16895 15.8926ZM12.9189 15.8926C12.9189 15.5801 12.6064 15.2676 12.2939 15.2676C11.9424 15.2676 11.6689 15.5801 11.6689 15.8926C11.6689 18.3145 13.6221 20.2676 16.0439 20.2676C16.3564 20.2676 16.6689 19.9941 16.6689 19.6426C16.6689 19.3301 16.3564 19.0176 16.0439 19.0176C14.2861 19.0176 12.9189 17.6504 12.9189 15.8926Z" fill="#3874FF"/>
</g>
</svg>
