<svg width="30" height="33" viewBox="0 0 30 33" fill="none" xmlns="http://www.w3.org/2000/svg">
<rect x="0.800049" y="11.812" width="20.7558" height="20.7558" rx="3.89172" transform="rotate(-7.45329 0.800049 11.812)" fill="#E5EDFF"/>
<g style="mix-blend-mode:multiply">
<path d="M26.0049 4.72656L28.3877 14.4141C28.4658 14.8047 28.5439 15.2344 28.5439 15.625V19.375C28.5439 20.4297 27.6846 21.25 26.6689 21.25H10.4189C9.36426 21.25 8.54395 20.4297 8.54395 19.375V15.625C8.54395 15.2344 8.58301 14.8047 8.66113 14.4141L11.0439 4.6875C11.2002 4.14062 11.708 3.75 12.2939 3.75H24.7939C25.3408 3.75 25.8486 4.14062 26.0049 4.72656ZM22.2939 16.25L23.5439 13.75H25.6924L23.8174 6.25H13.2705L11.3564 13.75H13.5439L14.7939 16.25H22.2939Z" fill="#3874FF"/>
</g>
</svg>
