<svg width="29" height="33" viewBox="0 0 29 33" fill="none" xmlns="http://www.w3.org/2000/svg">
<rect x="0.400024" y="12.2046" width="20.7558" height="20.7558" rx="3.89172" transform="rotate(-7.45329 0.400024 12.2046)" fill="#E5EDFF"/>
<g style="mix-blend-mode:multiply">
<path d="M20.6439 8.51758C20.6439 11.6426 18.1049 14.1426 15.0189 14.1426C11.8939 14.1426 9.39392 11.6426 9.39392 8.51758C9.39392 5.43164 11.8939 2.89258 15.0189 2.89258C18.1049 2.89258 20.6439 5.43164 20.6439 8.51758ZM15.6439 5.39258C15.6439 5.08008 15.3314 4.76758 15.0189 4.76758C12.9095 4.76758 11.2689 6.44727 11.2689 8.51758C11.2689 8.86914 11.5424 9.14258 11.8939 9.14258C12.2064 9.14258 12.5189 8.86914 12.5189 8.51758C12.5189 7.15039 13.6127 6.01758 15.0189 6.01758C15.3314 6.01758 15.6439 5.74414 15.6439 5.39258ZM13.7689 21.6426V15.3145C14.1595 15.3535 14.5892 15.3926 15.0189 15.3926C15.4095 15.3926 15.8392 15.3535 16.2689 15.3145V21.6426C16.2689 22.3457 15.683 22.8926 15.0189 22.8926C14.3158 22.8926 13.7689 22.3457 13.7689 21.6426Z" fill="#3874FF"/>
</g>
</svg>
