<svg width="30" height="33" viewBox="0 0 30 33" fill="none" xmlns="http://www.w3.org/2000/svg">
<rect y="12.2046" width="20.7558" height="20.7558" rx="3.89172" transform="rotate(-7.45329 0 12.2046)" fill="#E5EDFF"/>
<g style="mix-blend-mode:multiply">
<path d="M22.6267 8.79102L28.2126 9.61133C28.6814 9.68945 29.072 10.002 29.2283 10.4707C29.3845 10.9004 29.2673 11.4082 28.9158 11.7207L24.8533 15.7441L25.8298 21.4473C25.908 21.916 25.7126 22.3848 25.322 22.6582C24.9314 22.9707 24.4236 22.9707 23.9939 22.7754L18.9939 20.0801L13.9548 22.7754C13.5642 22.9707 13.0173 22.9707 12.6658 22.6582C12.2751 22.3848 12.0798 21.916 12.158 21.4473L13.0955 15.7441L9.03296 11.7207C8.6814 11.4082 8.56421 10.9004 8.72046 10.4707C8.87671 10.002 9.26733 9.68945 9.73608 9.61133L15.3611 8.79102L17.8611 3.5957C18.0564 3.16602 18.4861 2.89258 18.9939 2.89258C19.4626 2.89258 19.8923 3.16602 20.0876 3.5957L22.6267 8.79102Z" fill="#3874FF"/>
</g>
</svg>
