<svg width="30" height="33" viewBox="0 0 30 33" fill="none" xmlns="http://www.w3.org/2000/svg">
<rect x="0.600098" y="11.812" width="20.7558" height="20.7558" rx="3.89172" transform="rotate(-7.45329 0.600098 11.812)" fill="#E5EDFF"/>
<g style="mix-blend-mode:multiply">
<path d="M18.344 22.5C12.7971 22.5 8.34399 18.0469 8.34399 12.5C8.34399 6.99219 12.7971 2.5 18.344 2.5C23.8518 2.5 28.344 6.99219 28.344 12.5C28.344 18.0469 23.8518 22.5 18.344 22.5ZM17.4065 12.5C17.4065 12.8125 17.5627 13.125 17.7971 13.2812L21.5471 15.7812C21.9768 16.0938 22.5627 15.9766 22.8362 15.5469C23.1487 15.1172 23.0315 14.5312 22.6018 14.2188L19.2815 12.0312V7.1875C19.2815 6.67969 18.8518 6.25 18.3049 6.25C17.7971 6.25 17.3674 6.67969 17.3674 7.1875L17.4065 12.5Z" fill="#3874FF"/>
</g>
</svg>
