<svg width="29" height="33" viewBox="0 0 29 33" fill="none" xmlns="http://www.w3.org/2000/svg">
<rect y="11.8125" width="20.7558" height="20.7558" rx="3.89172" transform="rotate(-7.45329 0 11.8125)" fill="#E5EDFF"/>
<g style="mix-blend-mode:multiply">
<path d="M8.25171 2.61719C8.60327 2.46094 8.9939 2.5 9.26733 2.73438L10.8689 4.10156L12.4314 2.73438C12.783 2.46094 13.2908 2.46094 13.6423 2.73438L15.2439 4.10156L16.8064 2.73438C17.158 2.46094 17.6658 2.46094 18.0173 2.73438L19.6189 4.10156L21.1814 2.73438C21.4548 2.5 21.8455 2.46094 22.197 2.61719C22.5095 2.77344 22.7439 3.08594 22.7439 3.4375V21.5625C22.7439 21.9531 22.5095 22.2656 22.197 22.4219C21.8455 22.5781 21.4548 22.5391 21.1814 22.3047L19.6189 20.9375L18.0173 22.3047C17.6658 22.5781 17.158 22.5781 16.8064 22.3047L15.2439 20.9375L13.6423 22.3047C13.2908 22.5781 12.783 22.5781 12.4314 22.3047L10.8689 20.9375L9.26733 22.3047C8.9939 22.5391 8.60327 22.5781 8.25171 22.4219C7.93921 22.2656 7.7439 21.9531 7.7439 21.5625V3.4375C7.7439 3.08594 7.93921 2.77344 8.25171 2.61719ZM11.4939 8.125C11.1423 8.125 10.8689 8.4375 10.8689 8.75C10.8689 9.10156 11.1423 9.375 11.4939 9.375H18.9939C19.3064 9.375 19.6189 9.10156 19.6189 8.75C19.6189 8.4375 19.3064 8.125 18.9939 8.125H11.4939ZM11.4939 16.875H18.9939C19.3064 16.875 19.6189 16.6016 19.6189 16.25C19.6189 15.9375 19.3064 15.625 18.9939 15.625H11.4939C11.1423 15.625 10.8689 15.9375 10.8689 16.25C10.8689 16.6016 11.1423 16.875 11.4939 16.875ZM11.4939 11.875C11.1423 11.875 10.8689 12.1875 10.8689 12.5C10.8689 12.8516 11.1423 13.125 11.4939 13.125H18.9939C19.3064 13.125 19.6189 12.8516 19.6189 12.5C19.6189 12.1875 19.3064 11.875 18.9939 11.875H11.4939Z" fill="#3874FF"/>
</g>
</svg>
