<svg width="29" height="33" viewBox="0 0 29 33" fill="none" xmlns="http://www.w3.org/2000/svg">
<rect y="11.8125" width="20.7558" height="20.7558" rx="3.89172" transform="rotate(-7.45329 0 11.8125)" fill="#E5EDFF"/>
<g style="mix-blend-mode:multiply">
<path d="M7.7439 12.5C7.7439 6.99219 12.197 2.5 17.7439 2.5C23.2517 2.5 27.7439 6.99219 27.7439 12.5C27.7439 18.0469 23.2517 22.5 17.7439 22.5C12.197 22.5 7.7439 18.0469 7.7439 12.5ZM22.2361 10.7812C22.6658 10.3516 22.6658 9.6875 22.2361 9.25781C21.8064 8.82812 21.1423 8.82812 20.7126 9.25781L16.4939 13.4766L14.7361 11.7578C14.3064 11.3281 13.6423 11.3281 13.2126 11.7578C12.783 12.1875 12.783 12.8516 13.2126 13.2812L15.7126 15.7812C16.1423 16.2109 16.8064 16.2109 17.2361 15.7812L22.2361 10.7812Z" fill="#25B003"/>
</g>
</svg>
