<svg width="29" height="33" viewBox="0 0 29 33" fill="none" xmlns="http://www.w3.org/2000/svg">
<rect y="11.8125" width="20.7558" height="20.7558" rx="3.89172" transform="rotate(-7.45329 0 11.8125)" fill="#E5EDFF"/>
<g style="mix-blend-mode:multiply">
<path d="M17.7439 22.5C12.197 22.5 7.7439 18.0469 7.7439 12.5C7.7439 6.99219 12.197 2.5 17.7439 2.5C23.2517 2.5 27.7439 6.99219 27.7439 12.5C27.7439 18.0469 23.2517 22.5 17.7439 22.5ZM16.8064 12.5C16.8064 12.8125 16.9626 13.125 17.197 13.2812L20.947 15.7812C21.3767 16.0938 21.9626 15.9766 22.2361 15.5469C22.5486 15.1172 22.4314 14.5312 22.0017 14.2188L18.6814 12.0312V7.1875C18.6814 6.67969 18.2517 6.25 17.7048 6.25C17.197 6.25 16.7673 6.67969 16.7673 7.1875L16.8064 12.5Z" fill="#3874FF"/>
</g>
</svg>
