<svg width="29" height="33" viewBox="0 0 29 33" fill="none" xmlns="http://www.w3.org/2000/svg">
<rect y="11.8125" width="20.7558" height="20.7558" rx="3.89172" transform="rotate(-7.45329 0 11.8125)" fill="#E5EDFF"/>
<g style="mix-blend-mode:multiply">
<path d="M20.2439 15.625V13.75H27.7439V19.375C27.7439 20.3906 26.8455 21.25 25.8689 21.25H9.6189C8.60327 21.25 7.7439 20.3906 7.7439 19.375V13.75H15.2439V15.625C15.2439 15.9766 15.5173 16.25 15.8689 16.25H19.6189C19.9314 16.25 20.2439 15.9766 20.2439 15.625ZM25.8689 6.25C26.8455 6.25 27.7439 7.14844 27.7439 8.125V12.5H7.7439V8.125C7.7439 7.14844 8.60327 6.25 9.6189 6.25H12.7439V4.375C12.7439 3.39844 13.6033 2.5 14.6189 2.5H20.8689C21.8455 2.5 22.7439 3.39844 22.7439 4.375V6.25H25.8689ZM20.8689 6.25V4.375H14.6189V6.25H20.8689Z" fill="#3874FF"/>
</g>
</svg>
