<svg width="31" height="33" viewBox="0 0 31 33" fill="none" xmlns="http://www.w3.org/2000/svg">
<rect x="0.200012" y="11.812" width="20.7558" height="20.7558" rx="3.89172" transform="rotate(-7.45329 0.200012 11.812)" fill="#E5EDFF"/>
<g style="mix-blend-mode:multiply">
<path d="M29.3892 11.7969C30.0923 11.9141 30.522 12.5781 30.4048 13.2422C30.2877 13.9453 29.6236 14.375 28.9595 14.2578C27.9439 14.0625 27.2017 13.75 26.6939 13.4375C25.9127 13.8672 24.6627 14.375 22.9439 14.375C21.1861 14.375 19.9361 13.8672 19.1939 13.4375C18.4127 13.8672 17.1627 14.375 15.4439 14.375C13.6861 14.375 12.4361 13.8672 11.6548 13.4375C11.147 13.75 10.4048 14.0625 9.38922 14.2578C8.72516 14.375 8.0611 13.9453 7.94391 13.2422C7.82672 12.5781 8.25641 11.9141 8.95953 11.7969C10.1705 11.5625 10.7955 11.0156 10.7955 10.9766C11.3033 10.5078 12.0845 10.5078 12.5533 11.0156C12.5923 11.0156 13.5298 11.875 15.4048 11.875C17.3189 11.875 18.2564 11.0156 18.2955 10.9766C18.8033 10.5469 19.5845 10.5078 20.0533 11.0156C20.0923 11.0156 21.0298 11.875 22.9048 11.875C24.8189 11.875 25.7564 11.0156 25.7955 10.9766C26.3033 10.5469 27.0845 10.5078 27.5533 11.0156C27.5533 11.0156 28.1783 11.5625 29.3892 11.7969ZM29.3892 17.4219C30.0923 17.5391 30.522 18.2031 30.4048 18.8672C30.2877 19.5703 29.6236 20 28.9205 19.8828C27.9439 19.6875 27.1627 19.375 26.6548 19.0625C25.9127 19.4922 24.6627 20 22.9439 20C21.1861 20 19.9361 19.4922 19.1939 19.0625C18.4127 19.4922 17.1627 20.0391 15.4439 20.0391C13.6861 20.0391 12.4361 19.4922 11.6548 19.0625C11.147 19.375 10.4048 19.6875 9.38922 19.8828C8.72516 20 8.0611 19.5703 7.94391 18.8672C7.82672 18.2031 8.25641 17.5391 8.95953 17.4219C10.1705 17.1875 10.7955 16.6406 10.7955 16.6406C11.3033 16.1719 12.0845 16.1719 12.5533 16.6406C12.5923 16.6406 13.5298 17.5 15.4439 17.5C17.3189 17.5 18.2564 16.6406 18.2955 16.6406C18.8033 16.1719 19.5845 16.1719 20.0533 16.6406C20.0923 16.6406 21.0298 17.5 22.9439 17.5C24.8189 17.5 25.7564 16.6406 25.7955 16.6406C26.3033 16.1719 27.0845 16.1719 27.5533 16.6406C27.5533 16.6406 28.1783 17.1875 29.3892 17.4219ZM9.38922 8.63281C8.72516 8.75 8.0611 8.32031 7.94391 7.61719C7.82672 6.95312 8.25641 6.28906 8.95953 6.17188C10.1705 5.9375 10.7955 5.39062 10.7955 5.35156C11.3033 4.92188 12.0845 4.88281 12.5533 5.39062C12.5923 5.39062 13.5298 6.25 15.4439 6.25C17.3189 6.25 18.2564 5.39062 18.2955 5.35156C18.8033 4.92188 19.5845 4.88281 20.0533 5.39062C20.0923 5.39062 21.0298 6.25 22.9439 6.25C24.8189 6.25 25.7564 5.39062 25.7955 5.35156C26.3033 4.92188 27.0845 4.88281 27.5533 5.39062C27.5533 5.39062 28.1783 5.9375 29.3892 6.17188C30.0923 6.28906 30.522 6.95312 30.4048 7.61719C30.2877 8.32031 29.6236 8.75 28.9595 8.63281C27.9439 8.4375 27.2017 8.125 26.6939 7.8125C25.9127 8.24219 24.6627 8.75 22.9439 8.75C21.1861 8.75 19.9361 8.24219 19.1939 7.8125C18.4127 8.24219 17.1627 8.75 15.4439 8.75C13.6861 8.75 12.4361 8.24219 11.6548 7.8125C11.147 8.125 10.4048 8.4375 9.38922 8.63281Z" fill="#3874FF"/>
</g>
</svg>
