<svg width="40" height="40" viewBox="0 0 40 40" fill="none" xmlns="http://www.w3.org/2000/svg">
<rect width="40" height="40" rx="20" fill="#3874FF"/>
<path d="M25.2 19.7C25.2 20.15 24.825 20.525 24.4 20.525H20.8V24.125C20.8 24.55 20.425 24.9 20 24.9C19.55 24.9 19.2 24.55 19.2 24.125V20.525H15.6C15.15 20.525 14.8 20.15 14.8 19.7C14.8 19.275 15.15 18.925 15.6 18.925H19.2V15.325C19.2 14.875 19.55 14.5 20 14.5C20.425 14.5 20.8 14.875 20.8 15.325V18.925H24.4C24.825 18.9 25.2 19.275 25.2 19.7Z" fill="white"/>
</svg>
