<svg width="20" height="20" viewBox="0 0 20 20" fill="none" xmlns="http://www.w3.org/2000/svg">
<g clip-path="url(#clip0_6358_398201)">
<path d="M13.3333 10.8335V17.5002" stroke="#31374A" stroke-width="1.33" stroke-linecap="round" stroke-linejoin="round"/>
<path d="M6.66667 10.8335V17.5002" stroke="#31374A" stroke-width="1.33" stroke-linecap="round" stroke-linejoin="round"/>
<path d="M10 12.5V19.1667" stroke="#31374A" stroke-width="1.33" stroke-linecap="round" stroke-linejoin="round"/>
<path d="M16.6667 13.8166C17.5427 13.4329 18.2601 12.7596 18.6984 11.9095C19.1367 11.0595 19.2693 10.0846 19.0738 9.14841C18.8784 8.21222 18.3668 7.37177 17.625 6.76812C16.8832 6.16447 15.9564 5.83438 15 5.83326H13.95C13.6858 4.81036 13.1824 3.86488 12.4811 3.07476C11.7798 2.28463 10.9008 1.67249 9.91647 1.28878C8.93216 0.905063 7.87075 0.760771 6.81973 0.867794C5.76871 0.974816 4.75817 1.33009 3.87141 1.90433C2.98465 2.47856 2.24705 3.25533 1.71942 4.17059C1.19179 5.08585 0.889227 6.1134 0.836676 7.16855C0.784126 8.2237 0.98309 9.27623 1.41717 10.2394C1.85125 11.2025 2.50802 12.0488 3.33333 12.7083" stroke="#31374A" stroke-width="1.33" stroke-linecap="round" stroke-linejoin="round"/>
</g>
<defs>
<clipPath id="clip0_6358_398201">
<rect width="20" height="20" fill="white"/>
</clipPath>
</defs>
</svg>
