<svg width="21" height="21" viewBox="0 0 21 21" fill="none" xmlns="http://www.w3.org/2000/svg">
<path d="M20.3333 10.5C20.3333 10.5391 20.2942 10.5781 20.2942 10.6172C20.2942 12.0625 19.0051 13 17.5598 13H13.7708C12.7161 13 11.8958 13.8594 11.8958 14.875C11.8958 15.0312 11.8958 15.1484 11.9348 15.2656C12.0129 15.6953 12.1692 16.0469 12.3254 16.4375C12.5598 16.9844 12.8333 17.5312 12.8333 18.0781C12.8333 19.3281 11.9739 20.4609 10.7239 20.5C10.6067 20.5 10.4504 20.5 10.3333 20.5C4.78638 20.5 0.333252 16.0469 0.333252 10.5C0.333252 4.99219 4.78638 0.5 10.3333 0.5C15.8411 0.5 20.3333 4.99219 20.3333 10.5ZM4.08325 10.5C3.38013 10.5 2.83325 11.0859 2.83325 11.75C2.83325 12.4531 3.38013 13 4.08325 13C4.74731 13 5.33325 12.4531 5.33325 11.75C5.33325 11.0859 4.74731 10.5 4.08325 10.5ZM5.33325 8C5.99731 8 6.58325 7.45312 6.58325 6.75C6.58325 6.08594 5.99731 5.5 5.33325 5.5C4.63013 5.5 4.08325 6.08594 4.08325 6.75C4.08325 7.45312 4.63013 8 5.33325 8ZM10.3333 3C9.63013 3 9.08325 3.58594 9.08325 4.25C9.08325 4.95312 9.63013 5.5 10.3333 5.5C10.9973 5.5 11.5833 4.95312 11.5833 4.25C11.5833 3.58594 10.9973 3 10.3333 3ZM15.3333 8C15.9973 8 16.5833 7.45312 16.5833 6.75C16.5833 6.08594 15.9973 5.5 15.3333 5.5C14.6301 5.5 14.0833 6.08594 14.0833 6.75C14.0833 7.45312 14.6301 8 15.3333 8Z" fill="#31374A"/>
</svg>
