<svg width="60" height="60" viewBox="0 0 60 60" fill="none" xmlns="http://www.w3.org/2000/svg">
<path d="M38.16 20.37L25.29 33.27L20.34 28.32C20.0711 28.006 19.7401 27.7509 19.3679 27.5708C18.9957 27.3908 18.5903 27.2896 18.1772 27.2736C17.764 27.2576 17.352 27.3273 16.967 27.4781C16.5821 27.6289 16.2324 27.8577 15.9401 28.15C15.6477 28.4424 15.4189 28.7921 15.2681 29.177C15.1173 29.562 15.0477 29.974 15.0636 30.3872C15.0796 30.8003 15.1808 31.2057 15.3608 31.5779C15.5409 31.9501 15.796 32.2811 16.11 32.55L23.16 39.63C23.4403 39.908 23.7728 40.128 24.1383 40.2773C24.5038 40.4266 24.8952 40.5023 25.29 40.5C26.077 40.4967 26.8312 40.1842 27.39 39.63L42.39 24.63C42.6712 24.3511 42.8944 24.0193 43.0467 23.6537C43.199 23.2882 43.2774 22.896 43.2774 22.5C43.2774 22.104 43.199 21.7118 43.0467 21.3463C42.8944 20.9807 42.6712 20.6489 42.39 20.37C41.8279 19.8112 41.0676 19.4976 40.275 19.4976C39.4825 19.4976 38.7221 19.8112 38.16 20.37ZM30 0C24.0666 0 18.2664 1.75947 13.3329 5.05591C8.39943 8.35235 4.55426 13.0377 2.28363 18.5195C0.0129985 24.0013 -0.581102 30.0333 0.576455 35.8527C1.73401 41.6721 4.59124 47.0176 8.78681 51.2132C12.9824 55.4088 18.3279 58.266 24.1473 59.4236C29.9667 60.5811 35.9987 59.987 41.4805 57.7164C46.9623 55.4458 51.6477 51.6006 54.9441 46.6671C58.2405 41.7336 60 35.9334 60 30C60 26.0603 59.224 22.1593 57.7164 18.5195C56.2088 14.8797 53.999 11.5726 51.2132 8.7868C48.4275 6.00104 45.1203 3.79126 41.4805 2.28361C37.8408 0.775973 33.9397 0 30 0ZM30 54C25.2533 54 20.6131 52.5924 16.6663 49.9553C12.7195 47.3181 9.64341 43.5698 7.82691 39.1844C6.0104 34.799 5.53512 29.9734 6.46117 25.3178C7.38721 20.6623 9.67299 16.3859 13.0295 13.0294C16.3859 9.67298 20.6623 7.3872 25.3179 6.46115C29.9734 5.53511 34.799 6.01039 39.1844 7.82689C43.5698 9.6434 47.3181 12.7195 49.9553 16.6663C52.5924 20.6131 54 25.2532 54 30C54 36.3652 51.4715 42.4697 46.9706 46.9706C42.4697 51.4714 36.3652 54 30 54Z" fill="#25B003"/>
</svg>
