<svg width="20" height="20" viewBox="0 0 20 20" fill="none" xmlns="http://www.w3.org/2000/svg">
<path d="M10 15.8337C13.2217 15.8337 15.8334 13.222 15.8334 10.0003C15.8334 6.77866 13.2217 4.16699 10 4.16699C6.77836 4.16699 4.16669 6.77866 4.16669 10.0003C4.16669 13.222 6.77836 15.8337 10 15.8337Z" stroke="#31374A" stroke-width="1.33" stroke-linecap="round" stroke-linejoin="round"/>
<path d="M10 7.5V10L11.25 11.25" stroke="#31374A" stroke-width="1.33" stroke-linecap="round" stroke-linejoin="round"/>
<path d="M13.7583 14.458L13.4667 17.6497C13.4291 18.0652 13.2371 18.4516 12.9285 18.7324C12.6199 19.0132 12.2172 19.168 11.8 19.1664H8.19167C7.77444 19.168 7.37176 19.0132 7.06317 18.7324C6.75459 18.4516 6.56255 18.0652 6.525 17.6497L6.23334 14.458M6.24167 5.54136L6.53334 2.34969C6.57076 1.93559 6.76161 1.55043 7.06843 1.26982C7.37525 0.989205 7.77588 0.833413 8.19167 0.833022H11.8167C12.2339 0.831329 12.6366 0.986187 12.9452 1.267C13.2538 1.54781 13.4458 1.93415 13.4833 2.34969L13.775 5.54136" stroke="#31374A" stroke-width="1.33" stroke-linecap="round" stroke-linejoin="round"/>
</svg>
