<svg width="20" height="20" viewBox="0 0 20 20" fill="none" xmlns="http://www.w3.org/2000/svg">
<path d="M18.3333 10H13.3333L11.6667 12.5H8.33332L6.66666 10H1.66666" stroke="#31374A" stroke-width="1.33" stroke-linecap="round" stroke-linejoin="round"/>
<path d="M4.54166 4.2585L1.66666 10.0002V15.0002C1.66666 15.4422 1.84225 15.8661 2.15481 16.1787C2.46737 16.4912 2.8913 16.6668 3.33332 16.6668H16.6667C17.1087 16.6668 17.5326 16.4912 17.8452 16.1787C18.1577 15.8661 18.3333 15.4422 18.3333 15.0002V10.0002L15.4583 4.2585C15.3203 3.98082 15.1076 3.74714 14.8441 3.58373C14.5806 3.42032 14.2767 3.33366 13.9667 3.3335H6.03332C5.72325 3.33366 5.41938 3.42032 5.15586 3.58373C4.89234 3.74714 4.67964 3.98082 4.54166 4.2585V4.2585Z" stroke="#31374A" stroke-width="1.33" stroke-linecap="round" stroke-linejoin="round"/>
</svg>
