<svg width="20" height="20" viewBox="0 0 20 20" fill="none" xmlns="http://www.w3.org/2000/svg">
<path d="M13.3333 3.33301H15C15.442 3.33301 15.8659 3.5086 16.1785 3.82116C16.4911 4.13372 16.6667 4.55765 16.6667 4.99967V16.6663C16.6667 17.1084 16.4911 17.5323 16.1785 17.8449C15.8659 18.1574 15.442 18.333 15 18.333H5C4.55797 18.333 4.13405 18.1574 3.82149 17.8449C3.50893 17.5323 3.33333 17.1084 3.33333 16.6663V4.99967C3.33333 4.55765 3.50893 4.13372 3.82149 3.82116C4.13405 3.5086 4.55797 3.33301 5 3.33301H6.66667" stroke="#31374A" stroke-width="1.33" stroke-linecap="round" stroke-linejoin="round"/>
<path d="M12.5 1.66699H7.5C7.03976 1.66699 6.66667 2.04009 6.66667 2.50033V4.16699C6.66667 4.62723 7.03976 5.00033 7.5 5.00033H12.5C12.9602 5.00033 13.3333 4.62723 13.3333 4.16699V2.50033C13.3333 2.04009 12.9602 1.66699 12.5 1.66699Z" stroke="#31374A" stroke-width="1.33" stroke-linecap="round" stroke-linejoin="round"/>
</svg>
