<svg width="20" height="20" viewBox="0 0 20 20" fill="none" xmlns="http://www.w3.org/2000/svg">
<g clip-path="url(#clip0_6358_398097)">
<path d="M18.8417 14.1252C19.1102 13.4913 19.2174 12.8007 19.1538 12.1152C19.0902 11.4297 18.8577 10.7707 18.4772 10.197C18.0967 9.62329 17.5799 9.15283 16.9731 8.82764C16.3663 8.50245 15.6884 8.33268 15 8.3335H13.95C13.6098 6.9939 12.8617 5.79315 11.8092 4.89738C10.7567 4.00161 9.45175 3.45511 8.075 3.3335M4.16667 4.16683C2.86507 4.88653 1.84151 6.02082 1.25883 7.38925C0.676142 8.75769 0.567797 10.2817 0.951025 11.7188C1.33425 13.1559 2.18704 14.4236 3.37374 15.3202C4.56043 16.2168 6.01287 16.6908 7.5 16.6668H15C15.4831 16.6663 15.9625 16.5817 16.4167 16.4168" stroke="#31374A" stroke-width="1.33" stroke-linecap="round" stroke-linejoin="round"/>
<path d="M0.833344 0.833496L19.1667 19.1668" stroke="#31374A" stroke-width="1.33" stroke-linecap="round" stroke-linejoin="round"/>
</g>
<defs>
<clipPath id="clip0_6358_398097">
<rect width="20" height="20" fill="white"/>
</clipPath>
</defs>
</svg>
