<svg width="20" height="20" viewBox="0 0 20 20" fill="none" xmlns="http://www.w3.org/2000/svg">
<path d="M17.8667 9.2081L10.2083 16.8664C9.27013 17.8046 7.99765 18.3317 6.67083 18.3317C5.34401 18.3317 4.07154 17.8046 3.13333 16.8664C2.19513 15.9282 1.66805 14.6558 1.66805 13.3289C1.66805 12.0021 2.19513 10.7296 3.13333 9.79144L10.7917 2.1331C11.4171 1.50763 12.2655 1.15625 13.15 1.15625C14.0345 1.15625 14.8829 1.50763 15.5083 2.1331C16.1338 2.75857 16.4852 3.60689 16.4852 4.49144C16.4852 5.37598 16.1338 6.2243 15.5083 6.84977L7.84167 14.5081C7.52893 14.8208 7.10477 14.9965 6.6625 14.9965C6.22023 14.9965 5.79607 14.8208 5.48333 14.5081C5.1706 14.1954 4.99491 13.7712 4.99491 13.3289C4.99491 12.8867 5.1706 12.4625 5.48333 12.1498L12.5583 5.0831" stroke="#31374A" stroke-width="1.33" stroke-linecap="round" stroke-linejoin="round"/>
</svg>
