<svg width="20" height="20" viewBox="0 0 20 20" fill="none" xmlns="http://www.w3.org/2000/svg">
<path d="M12.5417 4.16683C13.3556 4.32563 14.1036 4.72371 14.69 5.31011C15.2764 5.89651 15.6745 6.64455 15.8333 7.4585M12.5417 0.833496C14.2327 1.02136 15.8096 1.77864 17.0135 2.981C18.2174 4.18336 18.9767 5.75934 19.1667 7.45016M18.3333 14.1002V16.6002C18.3343 16.8322 18.2867 17.062 18.1937 17.2746C18.1008 17.4873 17.9644 17.6782 17.7934 17.835C17.6224 17.9919 17.4205 18.1114 17.2006 18.1857C16.9808 18.2601 16.7478 18.2877 16.5167 18.2668C13.9523 17.9882 11.4892 17.1119 9.32498 15.7085C7.31151 14.429 5.60443 12.722 4.32499 10.7085C2.91663 8.5345 2.04019 6.05932 1.76665 3.4835C1.74583 3.25305 1.77321 3.0208 1.84707 2.80152C1.92092 2.58224 2.03963 2.38074 2.19562 2.20985C2.35162 2.03896 2.54149 1.90242 2.75314 1.80893C2.9648 1.71544 3.1936 1.66705 3.42499 1.66683H5.92499C6.32941 1.66285 6.72148 1.80606 7.02812 2.06977C7.33476 2.33348 7.53505 2.6997 7.59165 3.10016C7.69717 3.90022 7.89286 4.68577 8.17499 5.44183C8.2871 5.7401 8.31137 6.06426 8.24491 6.3759C8.17844 6.68753 8.02404 6.97359 7.79998 7.20016L6.74165 8.2585C7.92795 10.3448 9.65536 12.0722 11.7417 13.2585L12.8 12.2002C13.0266 11.9761 13.3126 11.8217 13.6243 11.7552C13.9359 11.6888 14.26 11.713 14.5583 11.8252C15.3144 12.1073 16.0999 12.303 16.9 12.4085C17.3048 12.4656 17.6745 12.6695 17.9388 12.9814C18.203 13.2933 18.3435 13.6915 18.3333 14.1002Z" stroke="#31374A" stroke-width="1.33" stroke-linecap="round" stroke-linejoin="round"/>
</svg>
