<svg width="20" height="20" viewBox="0 0 20 20" fill="none" xmlns="http://www.w3.org/2000/svg">
<path d="M10 13.3332C11.8409 13.3332 13.3333 11.8408 13.3333 9.99984C13.3333 8.15889 11.8409 6.6665 10 6.6665C8.15905 6.6665 6.66667 8.15889 6.66667 9.99984C6.66667 11.8408 8.15905 13.3332 10 13.3332Z" stroke="#31374A" stroke-width="1.33" stroke-linecap="round" stroke-linejoin="round"/>
<path d="M13.3333 6.66647V10.8331C13.3333 11.4962 13.5967 12.1321 14.0656 12.6009C14.5344 13.0697 15.1703 13.3331 15.8333 13.3331C16.4964 13.3331 17.1323 13.0697 17.6011 12.6009C18.0699 12.1321 18.3333 11.4962 18.3333 10.8331V9.99981C18.3332 8.119 17.6969 6.29354 16.5277 4.82025C15.3586 3.34696 13.7255 2.3125 11.8939 1.88506C10.0623 1.45762 8.13994 1.66234 6.43945 2.46595C4.73897 3.26955 3.36033 4.62477 2.52771 6.31124C1.6951 7.99772 1.45747 9.91626 1.85347 11.7549C2.24947 13.5936 3.25581 15.2442 4.70886 16.4384C6.1619 17.6326 7.97619 18.3001 9.85672 18.3324C11.7373 18.3648 13.5734 17.76 15.0667 16.6165" stroke="#31374A" stroke-width="1.33" stroke-linecap="round" stroke-linejoin="round"/>
</svg>
