<svg width="20" height="20" viewBox="0 0 20 20" fill="none" xmlns="http://www.w3.org/2000/svg">
<g clip-path="url(#clip0_6358_397992)">
<path d="M18.875 11.9915L10 18.4415L1.125 11.9915C1.00602 11.904 0.917764 11.7811 0.87286 11.6404C0.827956 11.4997 0.828705 11.3484 0.874998 11.2082L1.89166 8.05818L3.925 1.79985C3.94472 1.74885 3.97611 1.70319 4.01666 1.66651C4.0827 1.6062 4.1689 1.57275 4.25833 1.57275C4.34776 1.57275 4.43397 1.6062 4.5 1.66651C4.54282 1.7079 4.57437 1.75953 4.59166 1.81651L6.625 8.05818H13.375L15.4083 1.79985C15.4281 1.74885 15.4594 1.70319 15.5 1.66651C15.566 1.6062 15.6522 1.57275 15.7417 1.57275C15.8311 1.57275 15.9173 1.6062 15.9833 1.66651C16.0261 1.7079 16.0577 1.75953 16.075 1.81651L18.1083 8.07485L19.1667 11.2082C19.2088 11.3528 19.2031 11.507 19.1506 11.6482C19.098 11.7893 19.0014 11.9097 18.875 11.9915V11.9915Z" stroke="#31374A" stroke-width="1.33" stroke-linecap="round" stroke-linejoin="round"/>
</g>
<defs>
<clipPath id="clip0_6358_397992">
<rect width="20" height="20" fill="white"/>
</clipPath>
</defs>
</svg>
