<svg width="20" height="20" viewBox="0 0 20 20" fill="none" xmlns="http://www.w3.org/2000/svg">
<path d="M18.3334 10H1.66669" stroke="#31374A" stroke-width="1.33" stroke-linecap="round" stroke-linejoin="round"/>
<path d="M4.54169 4.2585L1.66669 10.0002V15.0002C1.66669 15.4422 1.84228 15.8661 2.15484 16.1787C2.4674 16.4912 2.89133 16.6668 3.33335 16.6668H16.6667C17.1087 16.6668 17.5326 16.4912 17.8452 16.1787C18.1578 15.8661 18.3334 15.4422 18.3334 15.0002V10.0002L15.4584 4.2585C15.3204 3.98082 15.1077 3.74714 14.8441 3.58373C14.5806 3.42032 14.2768 3.33366 13.9667 3.3335H6.03335C5.72328 3.33366 5.41941 3.42032 5.15589 3.58373C4.89237 3.74714 4.67967 3.98082 4.54169 4.2585V4.2585Z" stroke="#31374A" stroke-width="1.33" stroke-linecap="round" stroke-linejoin="round"/>
<path d="M8.33331 13.3335H8.34331" stroke="#31374A" stroke-width="1.33" stroke-linecap="round" stroke-linejoin="round"/>
<path d="M5 13.3335H5.01" stroke="#31374A" stroke-width="1.33" stroke-linecap="round" stroke-linejoin="round"/>
</svg>
