<svg width="20" height="20" viewBox="0 0 20 20" fill="none" xmlns="http://www.w3.org/2000/svg">
<path d="M12.5 5.8335H15C15.5472 5.8335 16.089 5.94127 16.5945 6.15066C17.1 6.36006 17.5594 6.66697 17.9463 7.05388C18.3332 7.44079 18.6401 7.90013 18.8495 8.40565C19.0589 8.91117 19.1667 9.45299 19.1667 10.0002C19.1667 10.5473 19.0589 11.0892 18.8495 11.5947C18.6401 12.1002 18.3332 12.5595 17.9463 12.9464C17.5594 13.3334 17.1 13.6403 16.5945 13.8497C16.089 14.0591 15.5472 14.1668 15 14.1668H12.5M7.5 14.1668H5C4.45282 14.1668 3.911 14.0591 3.40548 13.8497C2.89996 13.6403 2.44063 13.3334 2.05372 12.9464C1.27232 12.165 0.833328 11.1052 0.833328 10.0002C0.833328 8.89509 1.27232 7.83529 2.05372 7.05388C2.83512 6.27248 3.89493 5.8335 5 5.8335H7.5" stroke="#31374A" stroke-width="1.33" stroke-linecap="round" stroke-linejoin="round"/>
<path d="M6.66667 10H13.3333" stroke="#31374A" stroke-width="1.33" stroke-linecap="round" stroke-linejoin="round"/>
</svg>
