<svg width="20" height="20" viewBox="0 0 20 20" fill="none" xmlns="http://www.w3.org/2000/svg">
<path d="M15 1.66699H5C4.07952 1.66699 3.33333 2.41318 3.33333 3.33366V16.667C3.33333 17.5875 4.07952 18.3337 5 18.3337H15C15.9205 18.3337 16.6667 17.5875 16.6667 16.667V3.33366C16.6667 2.41318 15.9205 1.66699 15 1.66699Z" stroke="#31374A" stroke-width="1.33" stroke-linecap="round" stroke-linejoin="round"/>
<path d="M10 14.9997C11.8409 14.9997 13.3333 13.5073 13.3333 11.6663C13.3333 9.82539 11.8409 8.33301 10 8.33301C8.15905 8.33301 6.66667 9.82539 6.66667 11.6663C6.66667 13.5073 8.15905 14.9997 10 14.9997Z" stroke="#31374A" stroke-width="1.33" stroke-linecap="round" stroke-linejoin="round"/>
<path d="M10 5H10.01" stroke="#31374A" stroke-width="1.33" stroke-linecap="round" stroke-linejoin="round"/>
</svg>
