<svg width="20" height="20" viewBox="0 0 20 20" fill="none" xmlns="http://www.w3.org/2000/svg">
<g clip-path="url(#clip0_6358_397959)">
<path d="M15.8333 14.0834C16.846 13.8778 17.7461 13.3033 18.3589 12.4713C18.9717 11.6394 19.2536 10.6094 19.1498 9.58134C19.0459 8.55328 18.5638 7.60048 17.7969 6.9079C17.0301 6.21532 16.0333 5.83238 15 5.83342H13.95C13.6739 4.76452 13.1367 3.78091 12.3866 2.97091C11.6365 2.16091 10.6969 1.54986 9.65235 1.19264C8.60776 0.835417 7.49081 0.743197 6.40178 0.92426C5.31275 1.10532 4.28573 1.554 3.41292 2.23001C2.54012 2.90602 1.84886 3.7882 1.4012 4.79735C0.953536 5.80649 0.763492 6.91101 0.848128 8.01175C0.932764 9.11248 1.28943 10.175 1.8861 11.1038C2.48278 12.0327 3.30078 12.7988 4.26667 13.3334" stroke="#31374A" stroke-width="1.33" stroke-linecap="round" stroke-linejoin="round"/>
<path d="M10.8333 9.16699L7.5 14.167H12.5L9.16667 19.167" stroke="#31374A" stroke-width="1.33" stroke-linecap="round" stroke-linejoin="round"/>
</g>
<defs>
<clipPath id="clip0_6358_397959">
<rect width="20" height="20" fill="white"/>
</clipPath>
</defs>
</svg>
