<svg width="20" height="20" viewBox="0 0 20 20" fill="none" xmlns="http://www.w3.org/2000/svg">
<path d="M16.6667 11.666H3.33332C2.41285 11.666 1.66666 12.4122 1.66666 13.3327V16.666C1.66666 17.5865 2.41285 18.3327 3.33332 18.3327H16.6667C17.5871 18.3327 18.3333 17.5865 18.3333 16.666V13.3327C18.3333 12.4122 17.5871 11.666 16.6667 11.666Z" stroke="#31374A" stroke-width="1.33" stroke-linecap="round" stroke-linejoin="round"/>
<path d="M5 15H5.01" stroke="#31374A" stroke-width="1.33" stroke-linecap="round" stroke-linejoin="round"/>
<path d="M16.6667 1.66602H3.33332C2.41285 1.66602 1.66666 2.41221 1.66666 3.33268V6.66602C1.66666 7.58649 2.41285 8.33268 3.33332 8.33268H16.6667C17.5871 8.33268 18.3333 7.58649 18.3333 6.66602V3.33268C18.3333 2.41221 17.5871 1.66602 16.6667 1.66602Z" stroke="#31374A" stroke-width="1.33" stroke-linecap="round" stroke-linejoin="round"/>
<path d="M5 5H5.01" stroke="#31374A" stroke-width="1.33" stroke-linecap="round" stroke-linejoin="round"/>
</svg>
