<svg width="20" height="20" viewBox="0 0 20 20" fill="none" xmlns="http://www.w3.org/2000/svg">
<path d="M15 8.3335H13.95C13.6382 7.12599 12.994 6.03015 12.0905 5.17049C11.1871 4.31083 10.0606 3.72182 8.83909 3.47039C7.6176 3.21896 6.35007 3.3152 5.18054 3.74816C4.01101 4.18112 2.98636 4.93344 2.22304 5.91965C1.45972 6.90585 0.98832 8.08639 0.862418 9.32712C0.736516 10.5679 0.961154 11.819 1.51081 12.9385C2.06046 14.0579 2.91309 15.0007 3.97181 15.6598C5.03053 16.3189 6.25289 16.6678 7.49999 16.6668H15C16.1051 16.6668 17.1649 16.2278 17.9463 15.4464C18.7277 14.665 19.1667 13.6052 19.1667 12.5002C19.1667 11.3951 18.7277 10.3353 17.9463 9.55388C17.1649 8.77248 16.1051 8.3335 15 8.3335Z" stroke="#31374A" stroke-width="1.33" stroke-linecap="round" stroke-linejoin="round"/>
</svg>
