<svg width="20" height="20" viewBox="0 0 20 20" fill="none" xmlns="http://www.w3.org/2000/svg">
<path d="M12.9167 15.833H11.6667V17.083C11.6667 17.7747 12.225 18.333 12.9167 18.333C13.6084 18.333 14.1667 17.7747 14.1667 17.083C14.1667 16.3913 13.6084 15.833 12.9167 15.833Z" stroke="#31374A" stroke-width="1.33" stroke-linecap="round" stroke-linejoin="round"/>
<path d="M7.91669 11.667C8.60835 11.667 9.16669 12.2253 9.16669 12.917V17.0837C9.16669 17.7753 8.60835 18.3337 7.91669 18.3337C7.22502 18.3337 6.66669 17.7753 6.66669 17.0837V12.917C6.66669 12.2253 7.22502 11.667 7.91669 11.667Z" stroke="#31374A" stroke-width="1.33" stroke-linecap="round" stroke-linejoin="round"/>
<path d="M2.91669 11.667H4.16669V12.917C4.16669 13.6087 3.60835 14.167 2.91669 14.167C2.22502 14.167 1.66669 13.6087 1.66669 12.917C1.66669 12.2253 2.22502 11.667 2.91669 11.667Z" stroke="#31374A" stroke-width="1.33" stroke-linecap="round" stroke-linejoin="round"/>
<path d="M11.6667 12.083C11.6667 11.3913 12.225 10.833 12.9167 10.833H17.0834C17.775 10.833 18.3334 11.3913 18.3334 12.083C18.3334 12.7747 17.775 13.333 17.0834 13.333H12.9167C12.225 13.333 11.6667 12.7747 11.6667 12.083Z" stroke="#31374A" stroke-width="1.33" stroke-linecap="round" stroke-linejoin="round"/>
<path d="M8.33335 7.91699C8.33335 7.22533 7.77502 6.66699 7.08335 6.66699H2.91669C2.22502 6.66699 1.66669 7.22533 1.66669 7.91699C1.66669 8.60866 2.22502 9.16699 2.91669 9.16699H7.08335C7.77502 9.16699 8.33335 8.60866 8.33335 7.91699Z" stroke="#31374A" stroke-width="1.33" stroke-linecap="round" stroke-linejoin="round"/>
<path d="M17.0833 8.33301H15.8333V7.08301C15.8333 6.39134 16.3916 5.83301 17.0833 5.83301C17.775 5.83301 18.3333 6.39134 18.3333 7.08301C18.3333 7.77467 17.775 8.33301 17.0833 8.33301Z" stroke="#31374A" stroke-width="1.33" stroke-linecap="round" stroke-linejoin="round"/>
<path d="M12.0833 8.33366C11.3916 8.33366 10.8333 7.77532 10.8333 7.08366V2.91699C10.8333 2.22533 11.3916 1.66699 12.0833 1.66699C12.775 1.66699 13.3333 2.22533 13.3333 2.91699V7.08366C13.3333 7.77532 12.775 8.33366 12.0833 8.33366Z" stroke="#31374A" stroke-width="1.33" stroke-linecap="round" stroke-linejoin="round"/>
<path d="M7.08331 4.16699H8.33331V2.91699C8.33331 2.22533 7.77498 1.66699 7.08331 1.66699C6.39165 1.66699 5.83331 2.22533 5.83331 2.91699C5.83331 3.60866 6.39165 4.16699 7.08331 4.16699Z" stroke="#31374A" stroke-width="1.33" stroke-linecap="round" stroke-linejoin="round"/>
</svg>
