<svg width="20" height="20" viewBox="0 0 20 20" fill="none" xmlns="http://www.w3.org/2000/svg">
<path d="M5.83333 18.3337H3.33333C2.89131 18.3337 2.46738 18.1581 2.15482 17.8455C1.84226 17.5329 1.66667 17.109 1.66667 16.667V10.8337C1.66667 10.3916 1.84226 9.96771 2.15482 9.65515C2.46738 9.34259 2.89131 9.16699 3.33333 9.16699H5.83333M11.6667 7.50033V4.16699C11.6667 3.50395 11.4033 2.86807 10.9344 2.39923C10.4656 1.93038 9.82971 1.66699 9.16667 1.66699L5.83333 9.16699V18.3337H15.2333C15.6353 18.3382 16.0253 18.1973 16.3316 17.937C16.6379 17.6767 16.8397 17.3144 16.9 16.917L18.05 9.41699C18.0863 9.17812 18.0701 8.93423 18.0028 8.7022C17.9354 8.47018 17.8184 8.25557 17.6599 8.07325C17.5013 7.89094 17.3051 7.74527 17.0846 7.64634C16.8642 7.54741 16.6249 7.49759 16.3833 7.50033H11.6667Z" stroke="#31374A" stroke-width="1.33" stroke-linecap="round" stroke-linejoin="round"/>
</svg>
