<svg width="20" height="20" viewBox="0 0 20 20" fill="none" xmlns="http://www.w3.org/2000/svg">
<g clip-path="url(#clip0_6358_398169)">
<path d="M8.25001 3.53352C8.82362 3.39925 9.4109 3.33213 10 3.33352C15.8333 3.33352 19.1667 10.0002 19.1667 10.0002C18.6608 10.9465 18.0576 11.8375 17.3667 12.6585M11.7667 11.7668C11.5378 12.0125 11.2618 12.2095 10.9551 12.3461C10.6485 12.4828 10.3174 12.5562 9.98175 12.5622C9.64608 12.5681 9.31265 12.5063 9.00135 12.3806C8.69006 12.2549 8.40728 12.0677 8.16988 11.8303C7.93249 11.5929 7.74534 11.3101 7.6196 10.9988C7.49387 10.6875 7.43212 10.3541 7.43804 10.0184C7.44396 9.68276 7.51743 9.35172 7.65407 9.04506C7.79071 8.73839 7.98772 8.46239 8.23334 8.23352M14.95 14.9502C13.5255 16.036 11.7909 16.6376 10 16.6668C4.16668 16.6668 0.833344 10.0002 0.833344 10.0002C1.86992 8.06843 3.30762 6.38069 5.05001 5.05018L14.95 14.9502Z" stroke="#31374A" stroke-width="1.33" stroke-linecap="round" stroke-linejoin="round"/>
<path d="M0.833344 0.833496L19.1667 19.1668" stroke="#31374A" stroke-width="1.33" stroke-linecap="round" stroke-linejoin="round"/>
</g>
<defs>
<clipPath id="clip0_6358_398169">
<rect width="20" height="20" fill="white"/>
</clipPath>
</defs>
</svg>
