<svg width="20" height="20" viewBox="0 0 20 20" fill="none" xmlns="http://www.w3.org/2000/svg">
<path d="M15.6673 18.3338C17.1401 18.3338 18.334 17.1399 18.334 15.6672C18.334 14.1944 17.1401 13.0005 15.6673 13.0005C14.1945 13.0005 13.0006 14.1944 13.0006 15.6672C13.0006 17.1399 14.1945 18.3338 15.6673 18.3338Z" stroke="#31374A" stroke-width="1.33333" stroke-linecap="round" stroke-linejoin="round"/>
<path d="M5.00065 7.66732C6.47341 7.66732 7.66732 6.47341 7.66732 5.00065C7.66732 3.52789 6.47341 2.33398 5.00065 2.33398C3.52789 2.33398 2.33398 3.52789 2.33398 5.00065C2.33398 6.47341 3.52789 7.66732 5.00065 7.66732Z" stroke="#31374A" stroke-width="1.33333" stroke-linecap="round" stroke-linejoin="round"/>
<path d="M5.00064 18.3341V7.66748C5.00064 9.78921 5.8435 11.824 7.34379 13.3243C8.84408 14.8246 10.8789 15.6675 13.0006 15.6675" stroke="#31374A" stroke-width="1.33333" stroke-linecap="round" stroke-linejoin="round"/>
</svg>
