<svg width="20" height="20" viewBox="0 0 20 20" fill="none" xmlns="http://www.w3.org/2000/svg">
<g clip-path="url(#clip0_6358_398200)">
<path d="M0.833334 0.833496L19.1667 19.1668" stroke="#31374A" stroke-width="1.33" stroke-linecap="round" stroke-linejoin="round"/>
<path d="M10 16.6665H10.01" stroke="#31374A" stroke-width="1.33" stroke-linecap="round" stroke-linejoin="round"/>
<path d="M7.10833 13.4249C7.95434 12.8239 8.96639 12.501 10.0042 12.501C11.0419 12.501 12.054 12.8239 12.9 13.4249" stroke="#31374A" stroke-width="1.33" stroke-linecap="round" stroke-linejoin="round"/>
<path d="M13.9333 9.2168C14.6159 9.54992 15.2542 9.96704 15.8333 10.4585" stroke="#31374A" stroke-width="1.33" stroke-linecap="round" stroke-linejoin="round"/>
<path d="M4.16667 10.4585C5.40174 9.42582 6.88823 8.73864 8.475 8.4668" stroke="#31374A" stroke-width="1.33" stroke-linecap="round" stroke-linejoin="round"/>
<path d="M1.18333 7.5001C2.3393 6.47831 3.66475 5.66612 5.1 5.1001" stroke="#31374A" stroke-width="1.33" stroke-linecap="round" stroke-linejoin="round"/>
<path d="M8.925 4.20812C10.7103 4.06426 12.5064 4.28159 14.2059 4.84713C15.9054 5.41268 17.4735 6.31485 18.8167 7.49978" stroke="#31374A" stroke-width="1.33" stroke-linecap="round" stroke-linejoin="round"/>
</g>
<defs>
<clipPath id="clip0_6358_398200">
<rect width="20" height="20" fill="white"/>
</clipPath>
</defs>
</svg>
