<svg width="20" height="20" viewBox="0 0 20 20" fill="none" xmlns="http://www.w3.org/2000/svg">
<g clip-path="url(#clip0_6358_397958)">
<path d="M10 17.5V19.1667" stroke="#31374A" stroke-width="1.33" stroke-linecap="round" stroke-linejoin="round"/>
<path d="M13.3333 15.833V17.4997" stroke="#31374A" stroke-width="1.33" stroke-linecap="round" stroke-linejoin="round"/>
<path d="M6.66666 15.833V17.4997" stroke="#31374A" stroke-width="1.33" stroke-linecap="round" stroke-linejoin="round"/>
<path d="M10 12.5V14.1667" stroke="#31374A" stroke-width="1.33" stroke-linecap="round" stroke-linejoin="round"/>
<path d="M13.3333 10.833V12.4997" stroke="#31374A" stroke-width="1.33" stroke-linecap="round" stroke-linejoin="round"/>
<path d="M6.66666 10.833V12.4997" stroke="#31374A" stroke-width="1.33" stroke-linecap="round" stroke-linejoin="round"/>
<path d="M16.6667 13.8171C17.5427 13.4334 18.2601 12.76 18.6984 11.91C19.1367 11.06 19.2693 10.0851 19.0738 9.1489C18.8784 8.21271 18.3668 7.37226 17.625 6.76861C16.8832 6.16496 15.9564 5.83487 15 5.83375H13.95C13.6858 4.81085 13.1824 3.86537 12.4811 3.07525C11.7798 2.28512 10.9008 1.67298 9.91647 1.28926C8.93216 0.905551 7.87075 0.761259 6.81973 0.868282C5.76871 0.975304 4.75817 1.33058 3.87141 1.90481C2.98465 2.47905 2.24705 3.25582 1.71942 4.17108C1.19179 5.08634 0.889227 6.11389 0.836676 7.16904C0.784126 8.22419 0.98309 9.27672 1.41717 10.2399C1.85125 11.203 2.50802 12.0492 3.33333 12.7087" stroke="#31374A" stroke-width="1.33" stroke-linecap="round" stroke-linejoin="round"/>
</g>
<defs>
<clipPath id="clip0_6358_397958">
<rect width="20" height="20" fill="white"/>
</clipPath>
</defs>
</svg>
