<svg width="20" height="20" viewBox="0 0 20 20" fill="none" xmlns="http://www.w3.org/2000/svg">
<path d="M1.66666 16.6665H1.67666" stroke="#31374A" stroke-width="1.33" stroke-linecap="round" stroke-linejoin="round"/>
<path d="M1.66666 13.4168C2.4674 13.5801 3.20244 13.9753 3.78031 14.5532C4.35817 15.131 4.75335 15.8661 4.91666 16.6668M1.66666 10.0418C3.35898 10.23 4.93689 10.9885 6.14092 12.1926C7.34495 13.3966 8.10343 14.9745 8.29166 16.6668M1.66666 6.66683V5.00016C1.66666 4.55814 1.84225 4.13421 2.15481 3.82165C2.46737 3.50909 2.8913 3.3335 3.33332 3.3335H16.6667C17.1087 3.3335 17.5326 3.50909 17.8452 3.82165C18.1577 4.13421 18.3333 4.55814 18.3333 5.00016V15.0002C18.3333 15.4422 18.1577 15.8661 17.8452 16.1787C17.5326 16.4912 17.1087 16.6668 16.6667 16.6668H11.6667" stroke="#31374A" stroke-width="1.33" stroke-linecap="round" stroke-linejoin="round"/>
</svg>
