<svg width="20" height="20" viewBox="0 0 20 20" fill="none" xmlns="http://www.w3.org/2000/svg">
<path d="M11.6666 12.2997V2.91634C11.6666 2.36381 11.4472 1.8339 11.0565 1.4432C10.6658 1.0525 10.1358 0.833008 9.58331 0.833008C9.03078 0.833008 8.50087 1.0525 8.11017 1.4432C7.71947 1.8339 7.49998 2.36381 7.49998 2.91634V12.2997C6.83104 12.7466 6.32358 13.3969 6.05254 14.1543C5.7815 14.9118 5.76125 15.7364 5.99478 16.5063C6.22831 17.2761 6.70324 17.9505 7.34943 18.4297C7.99562 18.909 8.7788 19.1677 9.58331 19.1677C10.3878 19.1677 11.171 18.909 11.8172 18.4297C12.4634 17.9505 12.9383 17.2761 13.1718 16.5063C13.4054 15.7364 13.3851 14.9118 13.1141 14.1543C12.843 13.3969 12.3356 12.7466 11.6666 12.2997Z" stroke="#31374A" stroke-width="1.33" stroke-linecap="round" stroke-linejoin="round"/>
</svg>
