<svg width="20" height="20" viewBox="0 0 20 20" fill="none" xmlns="http://www.w3.org/2000/svg">
<path d="M9.99999 18.3332C14.6024 18.3332 18.3333 14.6022 18.3333 9.99984C18.3333 5.39746 14.6024 1.6665 9.99999 1.6665C5.39762 1.6665 1.66666 5.39746 1.66666 9.99984C1.66666 14.6022 5.39762 18.3332 9.99999 18.3332Z" stroke="#31374A" stroke-width="1.33" stroke-linecap="round" stroke-linejoin="round"/>
<path d="M17.6417 6.6665H10" stroke="#31374A" stroke-width="1.33" stroke-linecap="round" stroke-linejoin="round"/>
<path d="M9.99999 13.3332C11.8409 13.3332 13.3333 11.8408 13.3333 9.99984C13.3333 8.15889 11.8409 6.6665 9.99999 6.6665C8.15904 6.6665 6.66666 8.15889 6.66666 9.99984C6.66666 11.8408 8.15904 13.3332 9.99999 13.3332Z" stroke="#31374A" stroke-width="1.33" stroke-linecap="round" stroke-linejoin="round"/>
<path d="M9.06668 18.2832L12.8833 11.6665" stroke="#31374A" stroke-width="1.33" stroke-linecap="round" stroke-linejoin="round"/>
<path d="M3.29166 5.0498L7.11666 11.6665" stroke="#31374A" stroke-width="1.33" stroke-linecap="round" stroke-linejoin="round"/>
</svg>
