<svg width="20" height="20" viewBox="0 0 20 20" fill="none" xmlns="http://www.w3.org/2000/svg">
<path d="M14.1667 1.66632H16.3917C16.8633 1.65798 17.3216 1.8231 17.6795 2.13033C18.0375 2.43757 18.2701 2.86553 18.3334 3.33298V9.16632C18.2701 9.63377 18.0375 10.0617 17.6795 10.369C17.3216 10.6762 16.8633 10.8413 16.3917 10.833H14.1667M8.33336 12.4996V15.833C8.33336 16.496 8.59675 17.1319 9.06559 17.6007C9.53443 18.0696 10.1703 18.333 10.8334 18.333L14.1667 10.833V1.66632H4.76669C4.36475 1.66177 3.97471 1.80265 3.66844 2.06298C3.36216 2.32331 3.16029 2.68556 3.10003 3.08298L1.95003 10.583C1.91377 10.8219 1.92988 11.0657 1.99724 11.2978C2.0646 11.5298 2.18161 11.7444 2.34014 11.9267C2.49868 12.109 2.69496 12.2547 2.91538 12.3536C3.13581 12.4526 3.3751 12.5024 3.61669 12.4996H8.33336Z" stroke="#31374A" stroke-width="1.33" stroke-linecap="round" stroke-linejoin="round"/>
</svg>
