<svg width="20" height="20" viewBox="0 0 20 20" fill="none" xmlns="http://www.w3.org/2000/svg">
<path d="M7.99166 3.82515C8.18525 3.63041 8.42396 3.48652 8.68656 3.40627C8.94916 3.32601 9.22752 3.31189 9.4969 3.36514C9.76627 3.41839 10.0183 3.53738 10.2306 3.71152C10.4429 3.88566 10.6089 4.10956 10.7139 4.36331C10.8188 4.61706 10.8594 4.89281 10.8321 5.16603C10.8047 5.43926 10.7103 5.7015 10.5572 5.92945C10.4041 6.15739 10.1971 6.34398 9.95446 6.47262C9.71187 6.60126 9.44125 6.66797 9.16666 6.66682H1.66666M10.4917 16.1751C10.6853 16.3699 10.924 16.5138 11.1866 16.594C11.4492 16.6743 11.7275 16.6884 11.9969 16.6352C12.2663 16.5819 12.5183 16.4629 12.7306 16.2888C12.9429 16.1146 13.1089 15.8907 13.2139 15.637C13.3188 15.3832 13.3594 15.1075 13.3321 14.8343C13.3047 14.561 13.2103 14.2988 13.0572 14.0708C12.9041 13.8429 12.6971 13.6563 12.4545 13.5277C12.2119 13.399 11.9413 13.3323 11.6667 13.3335H1.66666M14.775 6.44182C15.0174 6.20005 15.3156 6.02174 15.6433 5.92266C15.971 5.82357 16.318 5.80676 16.6537 5.87372C16.9895 5.94068 17.3035 6.08933 17.5681 6.30654C17.8327 6.52375 18.0397 6.80281 18.1708 7.11906C18.3019 7.4353 18.353 7.77898 18.3197 8.11969C18.2864 8.4604 18.1696 8.78764 17.9797 9.07248C17.7898 9.35732 17.5326 9.59097 17.2309 9.75277C16.9292 9.91457 16.5923 9.99954 16.25 10.0001H1.66666" stroke="#31374A" stroke-width="1.33" stroke-linecap="round" stroke-linejoin="round"/>
</svg>
