<svg width="20" height="20" viewBox="0 0 20 20" fill="none" xmlns="http://www.w3.org/2000/svg">
<path d="M10 18.3335H10.01" stroke="#31374A" stroke-width="1.33" stroke-linecap="round" stroke-linejoin="round"/>
<path d="M13.3333 16.6665H13.3433" stroke="#31374A" stroke-width="1.33" stroke-linecap="round" stroke-linejoin="round"/>
<path d="M6.66667 16.6665H6.67667" stroke="#31374A" stroke-width="1.33" stroke-linecap="round" stroke-linejoin="round"/>
<path d="M10 15H10.01" stroke="#31374A" stroke-width="1.33" stroke-linecap="round" stroke-linejoin="round"/>
<path d="M16.6667 14.6501C17.5427 14.2664 18.2601 13.5931 18.6984 12.743C19.1367 11.893 19.2693 10.9181 19.0738 9.98191C18.8784 9.04572 18.3668 8.20526 17.625 7.60162C16.8833 6.99797 15.9564 6.66788 15 6.66675H13.95C13.6859 5.64385 13.1824 4.69838 12.4811 3.90825C11.7798 3.11813 10.9008 2.50598 9.91648 2.12227C8.93217 1.73856 7.87076 1.59427 6.81974 1.70129C5.76872 1.80831 4.75818 2.16358 3.87142 2.73782C2.98466 3.31206 2.24706 4.08882 1.71943 5.00408C1.1918 5.91934 0.889234 6.9469 0.836684 8.00205C0.784133 9.05719 0.983098 10.1097 1.41718 11.0729C1.85126 12.036 2.50802 12.8822 3.33334 13.5418" stroke="#31374A" stroke-width="1.33" stroke-linecap="round" stroke-linejoin="round"/>
<path d="M13.3333 13.3335H13.3433" stroke="#31374A" stroke-width="1.33" stroke-linecap="round" stroke-linejoin="round"/>
<path d="M6.66667 13.3335H6.67667" stroke="#31374A" stroke-width="1.33" stroke-linecap="round" stroke-linejoin="round"/>
</svg>
