<svg width="20" height="20" viewBox="0 0 20 20" fill="none" xmlns="http://www.w3.org/2000/svg">
<path d="M4.99999 15H3.33332C2.8913 15 2.46737 14.8244 2.15481 14.5118C1.84225 14.1993 1.66666 13.7754 1.66666 13.3333V9.16667C1.66666 8.72464 1.84225 8.30072 2.15481 7.98816C2.46737 7.6756 2.8913 7.5 3.33332 7.5H16.6667C17.1087 7.5 17.5326 7.6756 17.8452 7.98816C18.1577 8.30072 18.3333 8.72464 18.3333 9.16667V13.3333C18.3333 13.7754 18.1577 14.1993 17.8452 14.5118C17.5326 14.8244 17.1087 15 16.6667 15H15" stroke="#31374A" stroke-width="1.33" stroke-linecap="round" stroke-linejoin="round"/>
<path d="M15 11.6665H5V18.3332H15V11.6665Z" stroke="#31374A" stroke-width="1.33" stroke-linecap="round" stroke-linejoin="round"/>
<path d="M5 7.49984V1.6665H15V7.49984" stroke="#31374A" stroke-width="1.33" stroke-linecap="round" stroke-linejoin="round"/>
</svg>
