<svg width="20" height="20" viewBox="0 0 20 20" fill="none" xmlns="http://www.w3.org/2000/svg">
<path d="M19.1667 10.8327V9.16602" stroke="#31374A" stroke-width="1.33" stroke-linecap="round" stroke-linejoin="round"/>
<path d="M4.16668 15H2.50001C2.05798 15 1.63406 14.8244 1.3215 14.5118C1.00894 14.1993 0.833344 13.7754 0.833344 13.3333V6.66667C0.833344 6.22464 1.00894 5.80072 1.3215 5.48816C1.63406 5.17559 2.05798 5 2.50001 5H5.15834M12.5 5H14.1667C14.6087 5 15.0326 5.17559 15.3452 5.48816C15.6577 5.80072 15.8333 6.22464 15.8333 6.66667V13.3333C15.8333 13.7754 15.6577 14.1993 15.3452 14.5118C15.0326 14.8244 14.6087 15 14.1667 15H11.5083" stroke="#31374A" stroke-width="1.33" stroke-linecap="round" stroke-linejoin="round"/>
<path d="M9.16665 5L5.83331 10H10.8333L7.49998 15" stroke="#31374A" stroke-width="1.33" stroke-linecap="round" stroke-linejoin="round"/>
</svg>
