<svg width="20" height="20" viewBox="0 0 20 20" fill="none" xmlns="http://www.w3.org/2000/svg">
<path d="M10 18.3332C14.6024 18.3332 18.3333 14.6022 18.3333 9.99984C18.3333 5.39746 14.6024 1.6665 10 1.6665C5.39762 1.6665 1.66666 5.39746 1.66666 9.99984C1.66666 14.6022 5.39762 18.3332 10 18.3332Z" stroke="#31374A" stroke-width="1.33" stroke-linecap="round" stroke-linejoin="round"/>
<path d="M10 13.3332C11.8409 13.3332 13.3333 11.8408 13.3333 9.99984C13.3333 8.15889 11.8409 6.6665 10 6.6665C8.15905 6.6665 6.66666 8.15889 6.66666 9.99984C6.66666 11.8408 8.15905 13.3332 10 13.3332Z" stroke="#31374A" stroke-width="1.33" stroke-linecap="round" stroke-linejoin="round"/>
<path d="M12.3583 12.3584L15.8917 15.8917" stroke="#31374A" stroke-width="1.33" stroke-linecap="round" stroke-linejoin="round"/>
<path d="M4.10833 15.8917L7.64166 12.3584" stroke="#31374A" stroke-width="1.33" stroke-linecap="round" stroke-linejoin="round"/>
<path d="M12.3583 7.64173L15.8917 4.1084" stroke="#31374A" stroke-width="1.33" stroke-linecap="round" stroke-linejoin="round"/>
<path d="M12.3583 7.64186L15.3 4.7002" stroke="#31374A" stroke-width="1.33" stroke-linecap="round" stroke-linejoin="round"/>
<path d="M4.10833 4.1084L7.64166 7.64173" stroke="#31374A" stroke-width="1.33" stroke-linecap="round" stroke-linejoin="round"/>
</svg>
