<svg width="20" height="20" viewBox="0 0 20 20" fill="none" xmlns="http://www.w3.org/2000/svg">
<g clip-path="url(#clip0_6358_398155)">
<path d="M16.1666 12.4997C16.0557 12.751 16.0226 13.0298 16.0716 13.3002C16.1207 13.5705 16.2495 13.8199 16.4416 14.0163L16.4916 14.0663C16.6466 14.2211 16.7695 14.4049 16.8534 14.6073C16.9373 14.8096 16.9805 15.0265 16.9805 15.2455C16.9805 15.4645 16.9373 15.6814 16.8534 15.8837C16.7695 16.0861 16.6466 16.2699 16.4916 16.4247C16.3369 16.5796 16.153 16.7026 15.9507 16.7864C15.7484 16.8703 15.5315 16.9135 15.3125 16.9135C15.0935 16.9135 14.8766 16.8703 14.6742 16.7864C14.4719 16.7026 14.2881 16.5796 14.1333 16.4247L14.0833 16.3747C13.8869 16.1826 13.6375 16.0537 13.3671 16.0047C13.0968 15.9557 12.818 15.9887 12.5666 16.0997C12.3202 16.2053 12.11 16.3807 11.9619 16.6043C11.8138 16.8279 11.7344 17.0899 11.7333 17.358V17.4997C11.7333 17.9417 11.5577 18.3656 11.2452 18.6782C10.9326 18.9907 10.5087 19.1663 10.0666 19.1663C9.62462 19.1663 9.2007 18.9907 8.88814 18.6782C8.57558 18.3656 8.39998 17.9417 8.39998 17.4997V17.4247C8.39353 17.1488 8.30425 16.8813 8.14374 16.6569C7.98323 16.4325 7.75893 16.2616 7.49998 16.1663C7.24863 16.0554 6.96982 16.0223 6.69949 16.0713C6.42916 16.1204 6.17971 16.2492 5.98331 16.4413L5.93331 16.4913C5.77853 16.6463 5.59471 16.7692 5.39238 16.8531C5.19005 16.937 4.97317 16.9802 4.75415 16.9802C4.53512 16.9802 4.31824 16.937 4.11591 16.8531C3.91358 16.7692 3.72977 16.6463 3.57498 16.4913C3.42002 16.3366 3.29709 16.1527 3.21321 15.9504C3.12934 15.7481 3.08617 15.5312 3.08617 15.3122C3.08617 15.0932 3.12934 14.8763 3.21321 14.6739C3.29709 14.4716 3.42002 14.2878 3.57498 14.133L3.62498 14.083C3.81709 13.8866 3.94597 13.6372 3.99498 13.3668C4.044 13.0965 4.01091 12.8177 3.89998 12.5663C3.79434 12.3199 3.61894 12.1097 3.39537 11.9616C3.17179 11.8135 2.9098 11.7341 2.64165 11.733H2.49998C2.05795 11.733 1.63403 11.5574 1.32147 11.2449C1.00891 10.9323 0.833313 10.5084 0.833313 10.0663C0.833313 9.62431 1.00891 9.20039 1.32147 8.88783C1.63403 8.57527 2.05795 8.39968 2.49998 8.39968H2.57498C2.85081 8.39322 3.11832 8.30394 3.34273 8.14343C3.56714 7.98293 3.73808 7.75862 3.83331 7.49968C3.94424 7.24833 3.97733 6.96951 3.92832 6.69918C3.8793 6.42886 3.75043 6.17941 3.55831 5.98301L3.50831 5.93301C3.35335 5.77822 3.23042 5.59441 3.14655 5.39208C3.06267 5.18975 3.0195 4.97287 3.0195 4.75384C3.0195 4.53482 3.06267 4.31794 3.14655 4.11561C3.23042 3.91328 3.35335 3.72946 3.50831 3.57467C3.6631 3.41971 3.84692 3.29678 4.04925 3.21291C4.25158 3.12903 4.46845 3.08586 4.68748 3.08586C4.90651 3.08586 5.12338 3.12903 5.32571 3.21291C5.52804 3.29678 5.71186 3.41971 5.86665 3.57467L5.91665 3.62467C6.11305 3.81679 6.36249 3.94566 6.63282 3.99468C6.90315 4.04369 7.18197 4.0106 7.43331 3.89967H7.49998C7.74645 3.79404 7.95666 3.61864 8.10472 3.39506C8.25279 3.17149 8.33224 2.9095 8.33331 2.64134V2.49967C8.33331 2.05765 8.50891 1.63372 8.82147 1.32116C9.13403 1.0086 9.55795 0.833008 9.99998 0.833008C10.442 0.833008 10.8659 1.0086 11.1785 1.32116C11.4911 1.63372 11.6666 2.05765 11.6666 2.49967V2.57467C11.6677 2.84283 11.7472 3.10482 11.8952 3.3284C12.0433 3.55197 12.2535 3.72737 12.5 3.83301C12.7513 3.94394 13.0301 3.97703 13.3005 3.92801C13.5708 3.879 13.8202 3.75012 14.0166 3.55801L14.0666 3.50801C14.2214 3.35305 14.4053 3.23012 14.6076 3.14624C14.8099 3.06237 15.0268 3.0192 15.2458 3.0192C15.4648 3.0192 15.6817 3.06237 15.884 3.14624C16.0864 3.23012 16.2702 3.35305 16.425 3.50801C16.5799 3.6628 16.7029 3.84661 16.7867 4.04894C16.8706 4.25127 16.9138 4.46815 16.9138 4.68717C16.9138 4.9062 16.8706 5.12308 16.7867 5.32541C16.7029 5.52774 16.5799 5.71155 16.425 5.86634L16.375 5.91634C16.1829 6.11274 16.054 6.36219 16.005 6.63252C15.956 6.90285 15.9891 7.18166 16.1 7.43301V7.49968C16.2056 7.74615 16.381 7.95636 16.6046 8.10442C16.8282 8.25248 17.0902 8.33194 17.3583 8.33301H17.5C17.942 8.33301 18.3659 8.5086 18.6785 8.82116C18.9911 9.13373 19.1666 9.55765 19.1666 9.99968C19.1666 10.4417 18.9911 10.8656 18.6785 11.1782C18.3659 11.4907 17.942 11.6663 17.5 11.6663H17.425C17.1568 11.6674 16.8948 11.7469 16.6713 11.8949C16.4477 12.043 16.2723 12.2532 16.1666 12.4997V12.4997Z" stroke="#31374A" stroke-width="1.33" stroke-linecap="round" stroke-linejoin="round"/>
<path d="M10 12.5C11.3807 12.5 12.5 11.3807 12.5 10C12.5 8.61929 11.3807 7.5 10 7.5C8.61929 7.5 7.5 8.61929 7.5 10C7.5 11.3807 8.61929 12.5 10 12.5Z" stroke="#31374A" stroke-width="1.33" stroke-linecap="round" stroke-linejoin="round"/>
</g>
<defs>
<clipPath id="clip0_6358_398155">
<rect width="20" height="20" fill="white"/>
</clipPath>
</defs>
</svg>
