<svg width="20" height="20" viewBox="0 0 20 20" fill="none" xmlns="http://www.w3.org/2000/svg">
<g clip-path="url(#clip0_6358_398139)">
<path d="M8.88333 4.16699H11.6667C12.1087 4.16699 12.5326 4.34259 12.8452 4.65515C13.1577 4.96771 13.3333 5.39163 13.3333 5.83366V8.61699L14.1667 9.45033L19.1667 5.83366V14.167M13.3333 13.3337V14.167C13.3333 14.609 13.1577 15.0329 12.8452 15.3455C12.5326 15.6581 12.1087 15.8337 11.6667 15.8337H2.5C2.05797 15.8337 1.63404 15.6581 1.32148 15.3455C1.00892 15.0329 0.833328 14.609 0.833328 14.167V5.83366C0.833328 5.39163 1.00892 4.96771 1.32148 4.65515C1.63404 4.34259 2.05797 4.16699 2.5 4.16699H4.16666L13.3333 13.3337Z" stroke="#31374A" stroke-width="1.33" stroke-linecap="round" stroke-linejoin="round"/>
<path d="M0.833328 0.833008L19.1667 19.1663" stroke="#31374A" stroke-width="1.33" stroke-linecap="round" stroke-linejoin="round"/>
</g>
<defs>
<clipPath id="clip0_6358_398139">
<rect width="20" height="20" fill="white"/>
</clipPath>
</defs>
</svg>
