<svg width="20" height="20" viewBox="0 0 20 20" fill="none" xmlns="http://www.w3.org/2000/svg">
<path d="M16.6667 10V18.3333H3.33333V10" stroke="#31374A" stroke-width="1.33" stroke-linecap="round" stroke-linejoin="round"/>
<path d="M18.3333 5.8335H1.66667V10.0002H18.3333V5.8335Z" stroke="#31374A" stroke-width="1.33" stroke-linecap="round" stroke-linejoin="round"/>
<path d="M10 18.3335V5.8335" stroke="#31374A" stroke-width="1.33" stroke-linecap="round" stroke-linejoin="round"/>
<path d="M10 5.83317H13.75C14.3025 5.83317 14.8324 5.61368 15.2231 5.22298C15.6138 4.83228 15.8333 4.30237 15.8333 3.74984C15.8333 3.1973 15.6138 2.6674 15.2231 2.2767C14.8324 1.886 14.3025 1.6665 13.75 1.6665C10.8333 1.6665 10 5.83317 10 5.83317Z" stroke="#31374A" stroke-width="1.33" stroke-linecap="round" stroke-linejoin="round"/>
<path d="M10 5.83317H6.25C5.69747 5.83317 5.16756 5.61368 4.77686 5.22298C4.38616 4.83228 4.16667 4.30237 4.16667 3.74984C4.16667 3.1973 4.38616 2.6674 4.77686 2.2767C5.16756 1.886 5.69747 1.6665 6.25 1.6665C9.16667 1.6665 10 5.83317 10 5.83317Z" stroke="#31374A" stroke-width="1.33" stroke-linecap="round" stroke-linejoin="round"/>
</svg>
