<svg width="20" height="20" viewBox="0 0 20 20" fill="none" xmlns="http://www.w3.org/2000/svg">
<g clip-path="url(#clip0_6358_398059)">
<path d="M15 3.3335H5.00001C4.07954 3.3335 3.33334 4.07969 3.33334 5.00016V15.0002C3.33334 15.9206 4.07954 16.6668 5.00001 16.6668H15C15.9205 16.6668 16.6667 15.9206 16.6667 15.0002V5.00016C16.6667 4.07969 15.9205 3.3335 15 3.3335Z" stroke="#31374A" stroke-width="1.33" stroke-linecap="round" stroke-linejoin="round"/>
<path d="M12.5 7.5H7.5V12.5H12.5V7.5Z" stroke="#31374A" stroke-width="1.33" stroke-linecap="round" stroke-linejoin="round"/>
<path d="M7.5 0.833496V3.3335" stroke="#31374A" stroke-width="1.33" stroke-linecap="round" stroke-linejoin="round"/>
<path d="M12.5 0.833496V3.3335" stroke="#31374A" stroke-width="1.33" stroke-linecap="round" stroke-linejoin="round"/>
<path d="M7.5 16.6665V19.1665" stroke="#31374A" stroke-width="1.33" stroke-linecap="round" stroke-linejoin="round"/>
<path d="M12.5 16.6665V19.1665" stroke="#31374A" stroke-width="1.33" stroke-linecap="round" stroke-linejoin="round"/>
<path d="M16.6667 7.5H19.1667" stroke="#31374A" stroke-width="1.33" stroke-linecap="round" stroke-linejoin="round"/>
<path d="M16.6667 11.6665H19.1667" stroke="#31374A" stroke-width="1.33" stroke-linecap="round" stroke-linejoin="round"/>
<path d="M0.833344 7.5H3.33334" stroke="#31374A" stroke-width="1.33" stroke-linecap="round" stroke-linejoin="round"/>
<path d="M0.833344 11.6665H3.33334" stroke="#31374A" stroke-width="1.33" stroke-linecap="round" stroke-linejoin="round"/>
</g>
<defs>
<clipPath id="clip0_6358_398059">
<rect width="20" height="20" fill="white"/>
</clipPath>
</defs>
</svg>
