<svg width="29" height="33" viewBox="0 0 29 33" fill="none" xmlns="http://www.w3.org/2000/svg">
<rect x="0.199951" y="11.812" width="20.7558" height="20.7558" rx="3.89172" transform="rotate(-7.45329 0.199951 11.812)" fill="#E5EDFF"/>
<g style="mix-blend-mode:multiply">
<path d="M17.3188 11.25H21.6938C22.2017 11.25 22.6704 11.6016 22.8267 12.0703C23.022 12.5781 22.9048 13.125 22.5142 13.4766L12.5142 22.2266C12.0454 22.5781 11.4204 22.6172 10.9517 22.2656C10.4829 21.9531 10.2876 21.3281 10.522 20.7812L13.5298 13.75H9.15479C8.64697 13.75 8.17822 13.4375 8.02197 12.9688C7.82666 12.4609 7.94385 11.9141 8.33447 11.5625L18.3345 2.8125C18.8032 2.46094 19.4282 2.42188 19.897 2.77344C20.3657 3.08594 20.561 3.71094 20.3267 4.25781L17.3188 11.25Z" fill="#3874FF"/>
</g>
</svg>
