<svg width="13" height="11" viewBox="0 0 13 11" fill="none" xmlns="http://www.w3.org/2000/svg">
<path d="M11.575 2.6C11.575 2.725 11.575 2.825 11.575 2.95C11.575 6.425 8.95 10.4 4.125 10.4C2.625 10.4 1.25 9.975 0.0999999 9.225C0.3 9.25 0.5 9.275 0.725 9.275C1.95 9.275 3.075 8.85 3.975 8.15C2.825 8.125 1.85 7.375 1.525 6.325C1.7 6.35 1.85 6.375 2.025 6.375C2.25 6.375 2.5 6.325 2.7 6.275C1.5 6.025 0.6 4.975 0.6 3.7V3.675C0.95 3.875 1.375 3.975 1.8 4C1.075 3.525 0.625 2.725 0.625 1.825C0.625 1.325 0.75 0.875 0.975 0.5C2.275 2.075 4.225 3.125 6.4 3.25C6.35 3.05 6.325 2.85 6.325 2.65C6.325 1.2 7.5 0.0249999 8.95 0.0249999C9.7 0.0249999 10.375 0.325 10.875 0.85C11.45 0.725 12.025 0.5 12.525 0.2C12.325 0.825 11.925 1.325 11.375 1.65C11.9 1.6 12.425 1.45 12.875 1.25C12.525 1.775 12.075 2.225 11.575 2.6Z" fill="#EFF2F6"/>
</svg>
