<svg width="30" height="33" viewBox="0 0 30 33" fill="none" xmlns="http://www.w3.org/2000/svg">
<rect x="0.800049" y="11.812" width="20.7558" height="20.7558" rx="3.89172" transform="rotate(-7.45329 0.800049 11.812)" fill="#E5EDFF"/>
<g style="mix-blend-mode:multiply">
<path d="M15.4189 12.5C15.4189 10.7812 16.7861 9.375 18.5439 9.375C20.2627 9.375 21.6689 10.7812 21.6689 12.5C21.6689 14.2578 20.2627 15.625 18.5439 15.625C16.7861 15.625 15.4189 14.2578 15.4189 12.5ZM18.5439 2.5C19.208 2.5 19.7939 3.08594 19.7939 3.75V5.11719C22.9189 5.66406 25.3799 8.125 25.9268 11.25H27.2939C27.958 11.25 28.5439 11.8359 28.5439 12.5C28.5439 13.2031 27.958 13.75 27.2939 13.75H25.9268C25.3799 16.9141 22.9189 19.375 19.7939 19.9219V21.25C19.7939 21.9531 19.208 22.5 18.5439 22.5C17.8408 22.5 17.2939 21.9531 17.2939 21.25V19.9219C14.1299 19.375 11.6689 16.9141 11.1221 13.75H9.79395C9.09082 13.75 8.54395 13.2031 8.54395 12.5C8.54395 11.8359 9.09082 11.25 9.79395 11.25H11.1221C11.6689 8.125 14.1299 5.66406 17.2939 5.11719V3.75C17.2939 3.08594 17.8408 2.5 18.5439 2.5ZM13.5439 12.5C13.5439 15.2734 15.7705 17.5 18.5439 17.5C21.2783 17.5 23.5439 15.2734 23.5439 12.5C23.5439 9.76562 21.2783 7.5 18.5439 7.5C15.7705 7.5 13.5439 9.76562 13.5439 12.5Z" fill="#3874FF"/>
</g>
</svg>
