<svg width="504" height="251" viewBox="0 0 504 251" fill="none" xmlns="http://www.w3.org/2000/svg">
<path d="M52.5 14.7852V219.785" stroke="#E3E6ED" stroke-dasharray="3 3"/>
<path d="M93.3182 14.7852V219.785" stroke="#E3E6ED" stroke-dasharray="3 3"/>
<path d="M83.224 247.785V238.761H88.9584V239.836H84.5552V242.716H88.6896V243.792H84.5552V247.785H83.224ZM92.8644 247.9C91.8404 247.9 91.034 247.614 90.4452 247.043C89.8564 246.462 89.562 245.673 89.562 244.675C89.562 244.035 89.69 243.472 89.946 242.985C90.2106 242.49 90.5732 242.106 91.034 241.833C91.4948 241.56 92.0239 241.424 92.6212 241.424C93.4831 241.424 94.1615 241.701 94.6564 242.256C95.1514 242.802 95.3988 243.557 95.3988 244.521V244.956H90.8164C90.9103 246.253 91.5972 246.902 92.8772 246.902C93.2356 246.902 93.5855 246.846 93.9268 246.736C94.2767 246.625 94.6052 246.441 94.9124 246.185L95.2964 247.081C95.0148 247.337 94.6522 247.538 94.2084 247.683C93.7647 247.828 93.3167 247.9 92.8644 247.9ZM92.6724 242.332C92.1348 242.332 91.7082 242.499 91.3924 242.832C91.0767 243.164 90.8847 243.608 90.8164 244.163H94.3108C94.2852 243.582 94.1316 243.134 93.85 242.819C93.5684 242.494 93.1759 242.332 92.6724 242.332ZM100.162 247.9C99.684 247.9 99.2616 247.794 98.8946 247.58C98.5277 247.367 98.2546 247.081 98.0754 246.723V247.785H96.8082V238.761H98.101V242.55C98.2888 242.209 98.5618 241.936 98.9202 241.731C99.2872 241.526 99.701 241.424 100.162 241.424C100.716 241.424 101.199 241.556 101.608 241.82C102.026 242.085 102.346 242.46 102.568 242.947C102.799 243.425 102.914 243.996 102.914 244.662C102.914 245.328 102.799 245.904 102.568 246.39C102.346 246.876 102.026 247.252 101.608 247.516C101.199 247.772 100.716 247.9 100.162 247.9ZM99.8418 246.902C100.379 246.902 100.806 246.71 101.122 246.326C101.446 245.942 101.608 245.387 101.608 244.662C101.608 243.937 101.446 243.386 101.122 243.011C100.806 242.627 100.379 242.435 99.8418 242.435C99.3042 242.435 98.8733 242.627 98.549 243.011C98.2333 243.386 98.0754 243.937 98.0754 244.662C98.0754 245.387 98.2333 245.942 98.549 246.326C98.8733 246.71 99.3042 246.902 99.8418 246.902Z" fill="#3E465B"/>
<path d="M134.136 14.7852V219.785" stroke="#E3E6ED" stroke-dasharray="3 3"/>
<path d="M123.874 247.785V238.761H124.988L128.328 244.995L131.656 238.761H132.744V247.785H131.554V241.168L128.725 246.403H127.919L125.077 241.193V247.785H123.874ZM136.729 247.9C136.294 247.9 135.906 247.815 135.565 247.644C135.223 247.474 134.95 247.243 134.745 246.953C134.549 246.663 134.451 246.334 134.451 245.968C134.451 245.507 134.566 245.144 134.797 244.88C135.036 244.615 135.424 244.423 135.961 244.304C136.508 244.184 137.241 244.124 138.163 244.124H138.598V243.792C138.598 243.305 138.496 242.955 138.291 242.742C138.086 242.529 137.749 242.422 137.28 242.422C136.921 242.422 136.563 242.477 136.205 242.588C135.846 242.691 135.479 242.857 135.104 243.088L134.707 242.179C135.031 241.948 135.437 241.765 135.923 241.628C136.409 241.492 136.875 241.424 137.318 241.424C138.172 241.424 138.803 241.628 139.213 242.038C139.622 242.439 139.827 243.07 139.827 243.932V247.785H138.611V246.748C138.457 247.107 138.219 247.388 137.894 247.593C137.57 247.798 137.182 247.9 136.729 247.9ZM136.985 246.979C137.446 246.979 137.83 246.817 138.137 246.492C138.445 246.168 138.598 245.758 138.598 245.264V244.918H138.176C137.553 244.918 137.062 244.948 136.704 245.008C136.354 245.067 136.102 245.17 135.949 245.315C135.804 245.451 135.731 245.643 135.731 245.891C135.731 246.215 135.842 246.48 136.064 246.684C136.286 246.881 136.593 246.979 136.985 246.979ZM141.608 247.785V241.539H142.862V242.652C143.186 241.91 143.86 241.496 144.884 241.411L145.307 241.385L145.396 242.486L144.616 242.563C143.481 242.674 142.913 243.258 142.913 244.316V247.785H141.608Z" fill="#3E465B"/>
<path d="M174.955 14.7852V219.785" stroke="#E3E6ED" stroke-dasharray="3 3"/>
<path d="M163.714 247.785L167.733 238.761H168.834L172.866 247.785H171.509L170.562 245.584H165.992L165.058 247.785H163.714ZM168.271 240.233L166.466 244.508H170.114L168.296 240.233H168.271ZM173.907 250.089V241.539H175.174V242.601C175.353 242.243 175.627 241.957 175.993 241.744C176.36 241.53 176.783 241.424 177.261 241.424C177.815 241.424 178.297 241.556 178.707 241.82C179.125 242.085 179.445 242.46 179.667 242.947C179.897 243.425 180.013 243.996 180.013 244.662C180.013 245.328 179.897 245.904 179.667 246.39C179.445 246.876 179.125 247.252 178.707 247.516C178.297 247.772 177.815 247.9 177.261 247.9C176.8 247.9 176.386 247.802 176.019 247.606C175.661 247.401 175.388 247.124 175.2 246.774V250.089H173.907ZM176.941 246.902C177.478 246.902 177.905 246.71 178.221 246.326C178.545 245.942 178.707 245.387 178.707 244.662C178.707 243.937 178.545 243.386 178.221 243.011C177.905 242.627 177.478 242.435 176.941 242.435C176.403 242.435 175.972 242.627 175.648 243.011C175.332 243.386 175.174 243.937 175.174 244.662C175.174 245.387 175.332 245.942 175.648 246.326C175.972 246.71 176.403 246.902 176.941 246.902ZM181.47 247.785V241.539H182.724V242.652C183.048 241.91 183.722 241.496 184.746 241.411L185.169 241.385L185.258 242.486L184.478 242.563C183.343 242.674 182.775 243.258 182.775 244.316V247.785H181.47Z" fill="#3E465B"/>
<path d="M215.773 14.7852V219.785" stroke="#E3E6ED" stroke-dasharray="3 3"/>
<path d="M204.604 247.785V238.761H205.718L209.059 244.995L212.387 238.761H213.475V247.785H212.284V241.168L209.455 246.403H208.649L205.807 241.193V247.785H204.604ZM217.46 247.9C217.024 247.9 216.636 247.815 216.295 247.644C215.953 247.474 215.68 247.243 215.476 246.953C215.279 246.663 215.181 246.334 215.181 245.968C215.181 245.507 215.296 245.144 215.527 244.88C215.766 244.615 216.154 244.423 216.692 244.304C217.238 244.184 217.972 244.124 218.893 244.124H219.328V243.792C219.328 243.305 219.226 242.955 219.021 242.742C218.816 242.529 218.479 242.422 218.01 242.422C217.652 242.422 217.293 242.477 216.935 242.588C216.576 242.691 216.209 242.857 215.834 243.088L215.437 242.179C215.761 241.948 216.167 241.765 216.653 241.628C217.14 241.492 217.605 241.424 218.048 241.424C218.902 241.424 219.533 241.628 219.943 242.038C220.352 242.439 220.557 243.07 220.557 243.932V247.785H219.341V246.748C219.188 247.107 218.949 247.388 218.624 247.593C218.3 247.798 217.912 247.9 217.46 247.9ZM217.716 246.979C218.176 246.979 218.56 246.817 218.868 246.492C219.175 246.168 219.328 245.758 219.328 245.264V244.918H218.906C218.283 244.918 217.792 244.948 217.434 245.008C217.084 245.067 216.832 245.17 216.679 245.315C216.534 245.451 216.461 245.643 216.461 245.891C216.461 246.215 216.572 246.48 216.794 246.684C217.016 246.881 217.323 246.979 217.716 246.979ZM222.915 250.089L224.029 247.619L221.418 241.539H222.8L224.72 246.288L226.666 241.539H227.997L224.272 250.089H222.915Z" fill="#3E465B"/>
<path d="M256.591 14.7852V219.785" stroke="#E3E6ED" stroke-dasharray="3 3"/>
<path d="M247.071 247.888L246.969 246.8L247.801 246.748C248.637 246.68 249.055 246.202 249.055 245.315V238.761H250.374V245.315C250.374 246.091 250.173 246.693 249.772 247.12C249.371 247.546 248.778 247.785 247.993 247.836L247.071 247.888ZM254.558 247.9C253.048 247.9 252.292 247.06 252.292 245.379V241.539H253.585V245.392C253.585 245.895 253.688 246.266 253.892 246.505C254.097 246.744 254.422 246.864 254.865 246.864C255.352 246.864 255.744 246.701 256.043 246.377C256.35 246.053 256.504 245.618 256.504 245.072V241.539H257.796V247.785H256.542V246.787C256.337 247.154 256.064 247.431 255.723 247.619C255.382 247.806 254.993 247.9 254.558 247.9ZM259.618 247.785V241.539H260.873V242.576C261.086 242.2 261.376 241.914 261.743 241.718C262.119 241.522 262.537 241.424 262.998 241.424C264.474 241.424 265.212 242.26 265.212 243.932V247.785H263.919V244.009C263.919 243.472 263.813 243.079 263.599 242.832C263.394 242.584 263.07 242.46 262.626 242.46C262.106 242.46 261.688 242.627 261.372 242.96C261.065 243.284 260.911 243.715 260.911 244.252V247.785H259.618Z" fill="#3E465B"/>
<path d="M297.409 14.7852V219.785" stroke="#E3E6ED" stroke-dasharray="3 3"/>
<path d="M289.121 247.888L289.019 246.8L289.851 246.748C290.687 246.68 291.105 246.202 291.105 245.315V238.761H292.423V245.315C292.423 246.091 292.223 246.693 291.822 247.12C291.421 247.546 290.828 247.785 290.043 247.836L289.121 247.888ZM296.608 247.9C295.097 247.9 294.342 247.06 294.342 245.379V241.539H295.635V245.392C295.635 245.895 295.737 246.266 295.942 246.505C296.147 246.744 296.471 246.864 296.915 246.864C297.401 246.864 297.794 246.701 298.092 246.377C298.4 246.053 298.553 245.618 298.553 245.072V241.539H299.846V247.785H298.592V246.787C298.387 247.154 298.114 247.431 297.772 247.619C297.431 247.806 297.043 247.9 296.608 247.9ZM303.703 247.9C303.02 247.9 302.508 247.708 302.167 247.324C301.834 246.94 301.668 246.377 301.668 245.635V238.761H302.961V245.558C302.961 246.403 303.306 246.825 303.997 246.825C304.1 246.825 304.194 246.821 304.279 246.812C304.373 246.804 304.467 246.787 304.561 246.761L304.535 247.798C304.245 247.866 303.968 247.9 303.703 247.9Z" fill="#3E465B"/>
<path d="M338.227 14.7852V219.785" stroke="#E3E6ED" stroke-dasharray="3 3"/>
<path d="M326.212 247.785L330.231 238.761H331.332L335.364 247.785H334.007L333.06 245.584H328.49L327.556 247.785H326.212ZM330.769 240.233L328.964 244.508H332.612L330.794 240.233H330.769ZM338.632 247.9C337.122 247.9 336.366 247.06 336.366 245.379V241.539H337.659V245.392C337.659 245.895 337.762 246.266 337.966 246.505C338.171 246.744 338.496 246.864 338.939 246.864C339.426 246.864 339.818 246.701 340.117 246.377C340.424 246.053 340.578 245.618 340.578 245.072V241.539H341.87V247.785H340.616V246.787C340.411 247.154 340.138 247.431 339.797 247.619C339.456 247.806 339.067 247.9 338.632 247.9ZM346.521 250.204C345.958 250.204 345.433 250.136 344.947 250C344.46 249.872 344.029 249.667 343.654 249.385L344.051 248.464C344.426 248.72 344.81 248.907 345.203 249.027C345.595 249.146 346.005 249.206 346.432 249.206C347.626 249.206 348.224 248.609 348.224 247.414V246.428C348.044 246.804 347.763 247.098 347.379 247.312C347.003 247.525 346.581 247.632 346.112 247.632C345.548 247.632 345.058 247.504 344.64 247.248C344.221 246.983 343.897 246.62 343.667 246.16C343.436 245.69 343.321 245.144 343.321 244.521C343.321 243.907 343.436 243.369 343.667 242.908C343.897 242.439 344.221 242.076 344.64 241.82C345.058 241.556 345.548 241.424 346.112 241.424C346.589 241.424 347.016 241.53 347.392 241.744C347.767 241.957 348.044 242.251 348.224 242.627V241.539H349.478V247.26C349.478 248.242 349.226 248.976 348.723 249.462C348.219 249.957 347.485 250.204 346.521 250.204ZM346.419 246.62C346.965 246.62 347.4 246.433 347.724 246.057C348.049 245.682 348.211 245.17 348.211 244.521C348.211 243.873 348.049 243.365 347.724 242.998C347.4 242.622 346.965 242.435 346.419 242.435C345.873 242.435 345.437 242.622 345.113 242.998C344.789 243.365 344.627 243.873 344.627 244.521C344.627 245.17 344.789 245.682 345.113 246.057C345.437 246.433 345.873 246.62 346.419 246.62Z" fill="#3E465B"/>
<path d="M379.045 14.7852V219.785" stroke="#E3E6ED" stroke-dasharray="3 3"/>
<path d="M371.903 247.9C371.195 247.9 370.546 247.811 369.957 247.632C369.369 247.444 368.869 247.184 368.46 246.851L368.882 245.801C369.309 246.125 369.765 246.369 370.252 246.531C370.738 246.693 371.289 246.774 371.903 246.774C372.628 246.774 373.162 246.646 373.503 246.39C373.853 246.125 374.028 245.784 374.028 245.366C374.028 245.025 373.904 244.756 373.657 244.56C373.409 244.355 372.995 244.193 372.415 244.073L371.045 243.792C370.235 243.621 369.629 243.339 369.228 242.947C368.835 242.554 368.639 242.025 368.639 241.36C368.639 240.822 368.78 240.348 369.061 239.939C369.352 239.529 369.753 239.213 370.265 238.992C370.777 238.761 371.365 238.646 372.031 238.646C372.645 238.646 373.213 238.74 373.733 238.928C374.262 239.107 374.71 239.371 375.077 239.721L374.642 240.732C373.917 240.092 373.042 239.772 372.018 239.772C371.387 239.772 370.883 239.913 370.508 240.195C370.141 240.476 369.957 240.852 369.957 241.321C369.957 241.68 370.073 241.965 370.303 242.179C370.533 242.392 370.917 242.554 371.455 242.665L372.812 242.947C373.665 243.126 374.301 243.403 374.719 243.779C375.137 244.146 375.346 244.645 375.346 245.276C375.346 245.805 375.205 246.266 374.924 246.659C374.642 247.051 374.245 247.358 373.733 247.58C373.221 247.794 372.611 247.9 371.903 247.9ZM379.648 247.9C378.624 247.9 377.818 247.614 377.229 247.043C376.64 246.462 376.346 245.673 376.346 244.675C376.346 244.035 376.474 243.472 376.73 242.985C376.994 242.49 377.357 242.106 377.818 241.833C378.278 241.56 378.807 241.424 379.405 241.424C380.267 241.424 380.945 241.701 381.44 242.256C381.935 242.802 382.182 243.557 382.182 244.521V244.956H377.6C377.694 246.253 378.381 246.902 379.661 246.902C380.019 246.902 380.369 246.846 380.71 246.736C381.06 246.625 381.389 246.441 381.696 246.185L382.08 247.081C381.798 247.337 381.436 247.538 380.992 247.683C380.548 247.828 380.1 247.9 379.648 247.9ZM379.456 242.332C378.918 242.332 378.492 242.499 378.176 242.832C377.86 243.164 377.668 243.608 377.6 244.163H381.094C381.069 243.582 380.915 243.134 380.634 242.819C380.352 242.494 379.959 242.332 379.456 242.332ZM383.592 250.089V241.539H384.859V242.601C385.038 242.243 385.311 241.957 385.678 241.744C386.045 241.53 386.467 241.424 386.945 241.424C387.5 241.424 387.982 241.556 388.392 241.82C388.81 242.085 389.13 242.46 389.352 242.947C389.582 243.425 389.697 243.996 389.697 244.662C389.697 245.328 389.582 245.904 389.352 246.39C389.13 246.876 388.81 247.252 388.392 247.516C387.982 247.772 387.5 247.9 386.945 247.9C386.485 247.9 386.071 247.802 385.704 247.606C385.345 247.401 385.072 247.124 384.885 246.774V250.089H383.592ZM386.625 246.902C387.163 246.902 387.59 246.71 387.905 246.326C388.23 245.942 388.392 245.387 388.392 244.662C388.392 243.937 388.23 243.386 387.905 243.011C387.59 242.627 387.163 242.435 386.625 242.435C386.088 242.435 385.657 242.627 385.333 243.011C385.017 243.386 384.859 243.937 384.859 244.662C384.859 245.387 385.017 245.942 385.333 246.326C385.657 246.71 386.088 246.902 386.625 246.902Z" fill="#3E465B"/>
<path d="M419.864 14.7852V219.785" stroke="#E3E6ED" stroke-dasharray="3 3"/>
<path d="M414.536 247.9C413.674 247.9 412.928 247.713 412.296 247.337C411.665 246.953 411.174 246.416 410.824 245.724C410.483 245.025 410.312 244.205 410.312 243.267C410.312 242.32 410.483 241.5 410.824 240.809C411.174 240.118 411.665 239.585 412.296 239.209C412.928 238.834 413.674 238.646 414.536 238.646C415.39 238.646 416.132 238.834 416.763 239.209C417.403 239.585 417.894 240.118 418.235 240.809C418.585 241.5 418.76 242.315 418.76 243.254C418.76 244.201 418.585 245.025 418.235 245.724C417.894 246.416 417.403 246.953 416.763 247.337C416.132 247.713 415.39 247.9 414.536 247.9ZM414.536 246.748C415.432 246.748 416.128 246.445 416.623 245.84C417.126 245.225 417.378 244.368 417.378 243.267C417.378 242.166 417.13 241.313 416.635 240.707C416.14 240.101 415.441 239.798 414.536 239.798C413.64 239.798 412.94 240.101 412.437 240.707C411.942 241.313 411.695 242.166 411.695 243.267C411.695 244.368 411.942 245.225 412.437 245.84C412.94 246.445 413.64 246.748 414.536 246.748ZM423.156 247.9C422.516 247.9 421.961 247.768 421.492 247.504C421.031 247.23 420.672 246.851 420.416 246.364C420.16 245.869 420.032 245.289 420.032 244.624C420.032 243.634 420.314 242.853 420.877 242.281C421.44 241.709 422.2 241.424 423.156 241.424C423.548 241.424 423.936 241.492 424.32 241.628C424.704 241.765 425.02 241.953 425.268 242.192L424.858 243.1C424.619 242.878 424.355 242.716 424.064 242.614C423.783 242.503 423.514 242.448 423.258 242.448C422.652 242.448 422.183 242.64 421.85 243.024C421.526 243.399 421.364 243.937 421.364 244.636C421.364 245.336 421.526 245.886 421.85 246.288C422.183 246.68 422.652 246.876 423.258 246.876C423.514 246.876 423.783 246.825 424.064 246.723C424.355 246.612 424.619 246.445 424.858 246.224L425.268 247.145C425.02 247.376 424.7 247.559 424.308 247.696C423.924 247.832 423.54 247.9 423.156 247.9ZM429.053 247.9C428.268 247.9 427.684 247.7 427.3 247.299C426.916 246.898 426.724 246.317 426.724 245.558V242.537H425.508V241.539H426.724V239.657H428.017V241.539H429.949V242.537H428.017V245.456C428.017 245.908 428.111 246.249 428.298 246.48C428.495 246.71 428.81 246.825 429.245 246.825C429.382 246.825 429.514 246.812 429.642 246.787C429.77 246.753 429.898 246.714 430.026 246.672L430.231 247.644C430.103 247.721 429.924 247.781 429.693 247.824C429.472 247.875 429.258 247.9 429.053 247.9Z" fill="#3E465B"/>
<path d="M460.682 14.7852V219.785" stroke="#E3E6ED" stroke-dasharray="3 3"/>
<path d="M449.588 247.785V238.761H450.599L455.77 245.584V238.761H456.999V247.785H456.013L450.816 240.937V247.785H449.588ZM461.673 247.9C461.041 247.9 460.495 247.768 460.035 247.504C459.574 247.239 459.215 246.868 458.959 246.39C458.712 245.904 458.588 245.328 458.588 244.662C458.588 243.996 458.712 243.425 458.959 242.947C459.215 242.46 459.574 242.085 460.035 241.82C460.495 241.556 461.041 241.424 461.673 241.424C462.287 241.424 462.825 241.556 463.286 241.82C463.747 242.085 464.105 242.46 464.361 242.947C464.617 243.425 464.745 243.996 464.745 244.662C464.745 245.328 464.617 245.904 464.361 246.39C464.105 246.868 463.747 247.239 463.286 247.504C462.825 247.768 462.287 247.9 461.673 247.9ZM461.673 246.902C462.202 246.902 462.629 246.71 462.953 246.326C463.277 245.942 463.439 245.387 463.439 244.662C463.439 243.937 463.277 243.386 462.953 243.011C462.629 242.627 462.202 242.435 461.673 242.435C461.135 242.435 460.704 242.627 460.38 243.011C460.056 243.386 459.894 243.937 459.894 244.662C459.894 245.387 460.056 245.942 460.38 246.326C460.704 246.71 461.135 246.902 461.673 246.902ZM467.915 247.785L465.227 241.539H466.622L468.529 246.288L470.488 241.539H471.806L469.08 247.785H467.915Z" fill="#3E465B"/>
<path d="M501.5 14.7852V219.785" stroke="#E3E6ED" stroke-dasharray="3 3"/>
<path d="M2.4851 12.7852V11.6716H4.5331V5.29716L2.9331 6.29556L2.3955 5.30996L4.9171 3.76116H5.8515V11.6716H7.7715V12.7852H2.4851ZM12.5025 12.9004C11.4529 12.9004 10.6508 12.5036 10.0961 11.71C9.54997 10.9078 9.2769 9.76009 9.2769 8.26676C9.2769 6.74782 9.54997 5.60009 10.0961 4.82356C10.6508 4.03849 11.4529 3.64596 12.5025 3.64596C13.5606 3.64596 14.3628 4.03849 14.9089 4.82356C15.455 5.60009 15.7281 6.74356 15.7281 8.25396C15.7281 9.75582 15.4508 10.9078 14.8961 11.71C14.35 12.5036 13.5521 12.9004 12.5025 12.9004ZM12.5025 11.7996C13.151 11.7996 13.6332 11.5137 13.9489 10.942C14.2646 10.3702 14.4225 9.47422 14.4225 8.25396C14.4225 7.03369 14.2646 6.14622 13.9489 5.59156C13.6417 5.02836 13.1596 4.74676 12.5025 4.74676C11.854 4.74676 11.3718 5.02836 11.0561 5.59156C10.7404 6.15476 10.5825 7.04222 10.5825 8.25396C10.5825 9.47422 10.7404 10.3702 11.0561 10.942C11.3718 11.5137 11.854 11.7996 12.5025 11.7996ZM20.1775 12.9004C19.1279 12.9004 18.3258 12.5036 17.7711 11.71C17.225 10.9078 16.9519 9.76009 16.9519 8.26676C16.9519 6.74782 17.225 5.60009 17.7711 4.82356C18.3258 4.03849 19.1279 3.64596 20.1775 3.64596C21.2356 3.64596 22.0378 4.03849 22.5839 4.82356C23.13 5.60009 23.4031 6.74356 23.4031 8.25396C23.4031 9.75582 23.1258 10.9078 22.5711 11.71C22.025 12.5036 21.2271 12.9004 20.1775 12.9004ZM20.1775 11.7996C20.826 11.7996 21.3082 11.5137 21.6239 10.942C21.9396 10.3702 22.0975 9.47422 22.0975 8.25396C22.0975 7.03369 21.9396 6.14622 21.6239 5.59156C21.3167 5.02836 20.8346 4.74676 20.1775 4.74676C19.529 4.74676 19.0468 5.02836 18.7311 5.59156C18.4154 6.15476 18.2575 7.04222 18.2575 8.25396C18.2575 9.47422 18.4154 10.3702 18.7311 10.942C19.0468 11.5137 19.529 11.7996 20.1775 11.7996ZM27.8013 13.118L26.9309 12.606L32.2173 3.42836L33.0877 3.94036L27.8013 13.118ZM26.8797 9.16276C26.18 9.16276 25.6338 8.91956 25.2413 8.43316C24.8488 7.93822 24.6525 7.25982 24.6525 6.39796C24.6525 5.53609 24.8488 4.86196 25.2413 4.37556C25.6424 3.88916 26.1885 3.64596 26.8797 3.64596C27.5709 3.64596 28.1128 3.88916 28.5053 4.37556C28.9064 4.86196 29.1069 5.53609 29.1069 6.39796C29.1069 7.25982 28.9106 7.93822 28.5181 8.43316C28.1256 8.91956 27.5794 9.16276 26.8797 9.16276ZM26.8797 8.25396C27.2381 8.25396 27.5154 8.10036 27.7117 7.79316C27.9165 7.48596 28.0189 7.02089 28.0189 6.39796C28.0189 5.77502 27.9165 5.30996 27.7117 5.00276C27.5154 4.69556 27.2381 4.54196 26.8797 4.54196C26.5213 4.54196 26.2397 4.69556 26.0349 5.00276C25.8386 5.30996 25.7405 5.77502 25.7405 6.39796C25.7405 7.02942 25.8386 7.49876 26.0349 7.80596C26.2397 8.10462 26.5213 8.25396 26.8797 8.25396ZM33.1389 12.9004C32.4477 12.9004 31.9058 12.6572 31.5133 12.1708C31.1208 11.6844 30.9245 11.006 30.9245 10.1356C30.9245 9.28222 31.1208 8.61236 31.5133 8.12596C31.9058 7.63102 32.4477 7.38356 33.1389 7.38356C33.8386 7.38356 34.3848 7.63102 34.7773 8.12596C35.1698 8.61236 35.3661 9.28222 35.3661 10.1356C35.3661 11.006 35.1698 11.6844 34.7773 12.1708C34.3848 12.6572 33.8386 12.9004 33.1389 12.9004ZM33.1389 12.0044C33.4973 12.0044 33.7746 11.8508 33.9709 11.5436C34.1757 11.2364 34.2781 10.767 34.2781 10.1356C34.2781 9.52116 34.1757 9.06036 33.9709 8.75316C33.7746 8.44596 33.4973 8.29236 33.1389 8.29236C32.7805 8.29236 32.4989 8.44596 32.2941 8.75316C32.0978 9.05182 31.9997 9.51262 31.9997 10.1356C31.9997 10.767 32.0978 11.2364 32.2941 11.5436C32.4989 11.8508 32.7805 12.0044 33.1389 12.0044Z" fill="#3E465B"/>
<rect x="52" y="14.7852" width="450" height="1" fill="#E3E6ED"/>
<path d="M12.5025 53.9004C11.47 53.9004 10.6636 53.6785 10.0833 53.2348C9.51157 52.791 9.2257 52.1724 9.2257 51.3788C9.2257 50.8241 9.37077 50.3548 9.6609 49.9708C9.95957 49.5782 10.3478 49.3094 10.8257 49.1644C10.399 48.9852 10.062 48.7121 9.8145 48.3452C9.56703 47.9697 9.4433 47.5388 9.4433 47.0524C9.4433 46.3014 9.72063 45.7126 10.2753 45.286C10.83 44.8593 11.5724 44.646 12.5025 44.646C13.4412 44.646 14.1878 44.8593 14.7425 45.286C15.2972 45.7126 15.5745 46.3014 15.5745 47.0524C15.5745 47.5388 15.4465 47.9697 15.1905 48.3452C14.943 48.7206 14.606 48.9937 14.1793 49.1644C14.6657 49.3094 15.054 49.5782 15.3441 49.9708C15.6342 50.3548 15.7793 50.8241 15.7793 51.3788C15.7793 52.1724 15.4892 52.791 14.9089 53.2348C14.3372 53.6785 13.535 53.9004 12.5025 53.9004ZM12.5025 48.6908C13.0742 48.6908 13.518 48.5585 13.8337 48.294C14.158 48.0209 14.3201 47.6497 14.3201 47.1804C14.3201 46.7196 14.158 46.3569 13.8337 46.0924C13.518 45.8278 13.0742 45.6956 12.5025 45.6956C11.9308 45.6956 11.487 45.8278 11.1713 46.0924C10.8556 46.3569 10.6977 46.7196 10.6977 47.1804C10.6977 47.6497 10.8556 48.0209 11.1713 48.294C11.487 48.5585 11.9308 48.6908 12.5025 48.6908ZM12.5025 52.8508C13.8593 52.8508 14.5377 52.3302 14.5377 51.2892C14.5377 50.2566 13.8593 49.7404 12.5025 49.7404C11.8369 49.7404 11.3292 49.8684 10.9793 50.1244C10.638 50.3804 10.4673 50.7686 10.4673 51.2892C10.4673 52.3302 11.1457 52.8508 12.5025 52.8508ZM20.1775 53.9004C19.1279 53.9004 18.3258 53.5036 17.7711 52.71C17.225 51.9078 16.9519 50.7601 16.9519 49.2668C16.9519 47.7478 17.225 46.6001 17.7711 45.8236C18.3258 45.0385 19.1279 44.646 20.1775 44.646C21.2356 44.646 22.0378 45.0385 22.5839 45.8236C23.13 46.6001 23.4031 47.7436 23.4031 49.254C23.4031 50.7558 23.1258 51.9078 22.5711 52.71C22.025 53.5036 21.2271 53.9004 20.1775 53.9004ZM20.1775 52.7996C20.826 52.7996 21.3082 52.5137 21.6239 51.942C21.9396 51.3702 22.0975 50.4742 22.0975 49.254C22.0975 48.0337 21.9396 47.1462 21.6239 46.5916C21.3167 46.0284 20.8346 45.7468 20.1775 45.7468C19.529 45.7468 19.0468 46.0284 18.7311 46.5916C18.4154 47.1548 18.2575 48.0422 18.2575 49.254C18.2575 50.4742 18.4154 51.3702 18.7311 51.942C19.0468 52.5137 19.529 52.7996 20.1775 52.7996ZM27.8013 54.118L26.9309 53.606L32.2173 44.4284L33.0877 44.9404L27.8013 54.118ZM26.8797 50.1628C26.18 50.1628 25.6338 49.9196 25.2413 49.4332C24.8488 48.9382 24.6525 48.2598 24.6525 47.398C24.6525 46.5361 24.8488 45.862 25.2413 45.3756C25.6424 44.8892 26.1885 44.646 26.8797 44.646C27.5709 44.646 28.1128 44.8892 28.5053 45.3756C28.9064 45.862 29.1069 46.5361 29.1069 47.398C29.1069 48.2598 28.9106 48.9382 28.5181 49.4332C28.1256 49.9196 27.5794 50.1628 26.8797 50.1628ZM26.8797 49.254C27.2381 49.254 27.5154 49.1004 27.7117 48.7932C27.9165 48.486 28.0189 48.0209 28.0189 47.398C28.0189 46.775 27.9165 46.31 27.7117 46.0028C27.5154 45.6956 27.2381 45.542 26.8797 45.542C26.5213 45.542 26.2397 45.6956 26.0349 46.0028C25.8386 46.31 25.7405 46.775 25.7405 47.398C25.7405 48.0294 25.8386 48.4988 26.0349 48.806C26.2397 49.1046 26.5213 49.254 26.8797 49.254ZM33.1389 53.9004C32.4477 53.9004 31.9058 53.6572 31.5133 53.1708C31.1208 52.6844 30.9245 52.006 30.9245 51.1356C30.9245 50.2822 31.1208 49.6124 31.5133 49.126C31.9058 48.631 32.4477 48.3836 33.1389 48.3836C33.8386 48.3836 34.3848 48.631 34.7773 49.126C35.1698 49.6124 35.3661 50.2822 35.3661 51.1356C35.3661 52.006 35.1698 52.6844 34.7773 53.1708C34.3848 53.6572 33.8386 53.9004 33.1389 53.9004ZM33.1389 53.0044C33.4973 53.0044 33.7746 52.8508 33.9709 52.5436C34.1757 52.2364 34.2781 51.767 34.2781 51.1356C34.2781 50.5212 34.1757 50.0604 33.9709 49.7532C33.7746 49.446 33.4973 49.2924 33.1389 49.2924C32.7805 49.2924 32.4989 49.446 32.2941 49.7532C32.0978 50.0518 31.9997 50.5126 31.9997 51.1356C31.9997 51.767 32.0978 52.2364 32.2941 52.5436C32.4989 52.8508 32.7805 53.0044 33.1389 53.0044Z" fill="#3E465B"/>
<rect x="52" y="55.7852" width="450" height="1" fill="#E3E6ED"/>
<path d="M12.8225 94.9004C11.7302 94.9004 10.8854 94.5121 10.2881 93.7356C9.6993 92.959 9.4049 91.871 9.4049 90.4716C9.4049 88.927 9.7377 87.7366 10.4033 86.9004C11.0689 86.0641 11.9905 85.646 13.1681 85.646C13.6289 85.646 14.094 85.7398 14.5633 85.9276C15.0326 86.1068 15.4252 86.3628 15.7409 86.6956L15.2801 87.694C14.9729 87.3868 14.6316 87.1564 14.2561 87.0028C13.8892 86.8492 13.518 86.7724 13.1425 86.7724C12.3489 86.7724 11.7388 87.0625 11.3121 87.6428C10.894 88.2145 10.6849 89.0721 10.6849 90.2156V90.7276C10.8556 90.207 11.15 89.8017 11.5681 89.5116C11.9948 89.2129 12.4854 89.0636 13.0401 89.0636C13.5692 89.0636 14.0342 89.1873 14.4353 89.4348C14.8449 89.6822 15.1649 90.0236 15.3953 90.4588C15.6257 90.8854 15.7409 91.3761 15.7409 91.9308C15.7409 92.511 15.6172 93.0273 15.3697 93.4796C15.1222 93.9233 14.7766 94.2732 14.3329 94.5292C13.8977 94.7766 13.3942 94.9004 12.8225 94.9004ZM12.7457 93.8252C13.2662 93.8252 13.6886 93.6545 14.0129 93.3132C14.3372 92.9718 14.4993 92.5281 14.4993 91.982C14.4993 91.4358 14.3372 90.9921 14.0129 90.6508C13.6886 90.3094 13.2662 90.1388 12.7457 90.1388C12.2252 90.1388 11.8028 90.3094 11.4785 90.6508C11.1542 90.9921 10.9921 91.4358 10.9921 91.982C10.9921 92.5281 11.1542 92.9718 11.4785 93.3132C11.8028 93.6545 12.2252 93.8252 12.7457 93.8252ZM20.1775 94.9004C19.1279 94.9004 18.3258 94.5036 17.7711 93.71C17.225 92.9078 16.9519 91.7601 16.9519 90.2668C16.9519 88.7478 17.225 87.6001 17.7711 86.8236C18.3258 86.0385 19.1279 85.646 20.1775 85.646C21.2356 85.646 22.0378 86.0385 22.5839 86.8236C23.13 87.6001 23.4031 88.7436 23.4031 90.254C23.4031 91.7558 23.1258 92.9078 22.5711 93.71C22.025 94.5036 21.2271 94.9004 20.1775 94.9004ZM20.1775 93.7996C20.826 93.7996 21.3082 93.5137 21.6239 92.942C21.9396 92.3702 22.0975 91.4742 22.0975 90.254C22.0975 89.0337 21.9396 88.1462 21.6239 87.5916C21.3167 87.0284 20.8346 86.7468 20.1775 86.7468C19.529 86.7468 19.0468 87.0284 18.7311 87.5916C18.4154 88.1548 18.2575 89.0422 18.2575 90.254C18.2575 91.4742 18.4154 92.3702 18.7311 92.942C19.0468 93.5137 19.529 93.7996 20.1775 93.7996ZM27.8013 95.118L26.9309 94.606L32.2173 85.4284L33.0877 85.9404L27.8013 95.118ZM26.8797 91.1628C26.18 91.1628 25.6338 90.9196 25.2413 90.4332C24.8488 89.9382 24.6525 89.2598 24.6525 88.398C24.6525 87.5361 24.8488 86.862 25.2413 86.3756C25.6424 85.8892 26.1885 85.646 26.8797 85.646C27.5709 85.646 28.1128 85.8892 28.5053 86.3756C28.9064 86.862 29.1069 87.5361 29.1069 88.398C29.1069 89.2598 28.9106 89.9382 28.5181 90.4332C28.1256 90.9196 27.5794 91.1628 26.8797 91.1628ZM26.8797 90.254C27.2381 90.254 27.5154 90.1004 27.7117 89.7932C27.9165 89.486 28.0189 89.0209 28.0189 88.398C28.0189 87.775 27.9165 87.31 27.7117 87.0028C27.5154 86.6956 27.2381 86.542 26.8797 86.542C26.5213 86.542 26.2397 86.6956 26.0349 87.0028C25.8386 87.31 25.7405 87.775 25.7405 88.398C25.7405 89.0294 25.8386 89.4988 26.0349 89.806C26.2397 90.1046 26.5213 90.254 26.8797 90.254ZM33.1389 94.9004C32.4477 94.9004 31.9058 94.6572 31.5133 94.1708C31.1208 93.6844 30.9245 93.006 30.9245 92.1356C30.9245 91.2822 31.1208 90.6124 31.5133 90.126C31.9058 89.631 32.4477 89.3836 33.1389 89.3836C33.8386 89.3836 34.3848 89.631 34.7773 90.126C35.1698 90.6124 35.3661 91.2822 35.3661 92.1356C35.3661 93.006 35.1698 93.6844 34.7773 94.1708C34.3848 94.6572 33.8386 94.9004 33.1389 94.9004ZM33.1389 94.0044C33.4973 94.0044 33.7746 93.8508 33.9709 93.5436C34.1757 93.2364 34.2781 92.767 34.2781 92.1356C34.2781 91.5212 34.1757 91.0604 33.9709 90.7532C33.7746 90.446 33.4973 90.2924 33.1389 90.2924C32.7805 90.2924 32.4989 90.446 32.2941 90.7532C32.0978 91.0518 31.9997 91.5126 31.9997 92.1356C31.9997 92.767 32.0978 93.2364 32.2941 93.5436C32.4989 93.8508 32.7805 94.0044 33.1389 94.0044Z" fill="#3E465B"/>
<rect x="52" y="96.7852" width="450" height="1" fill="#E3E6ED"/>
<path d="M13.3217 135.785V133.955H9.2641V132.969L13.5521 126.761H14.6401V132.841H15.9585V133.955H14.6401V135.785H13.3217ZM13.3217 132.841V128.835L10.5825 132.841H13.3217ZM20.1775 135.9C19.1279 135.9 18.3258 135.504 17.7711 134.71C17.225 133.908 16.9519 132.76 16.9519 131.267C16.9519 129.748 17.225 128.6 17.7711 127.824C18.3258 127.038 19.1279 126.646 20.1775 126.646C21.2356 126.646 22.0378 127.038 22.5839 127.824C23.13 128.6 23.4031 129.744 23.4031 131.254C23.4031 132.756 23.1258 133.908 22.5711 134.71C22.025 135.504 21.2271 135.9 20.1775 135.9ZM20.1775 134.8C20.826 134.8 21.3082 134.514 21.6239 133.942C21.9396 133.37 22.0975 132.474 22.0975 131.254C22.0975 130.034 21.9396 129.146 21.6239 128.592C21.3167 128.028 20.8346 127.747 20.1775 127.747C19.529 127.747 19.0468 128.028 18.7311 128.592C18.4154 129.155 18.2575 130.042 18.2575 131.254C18.2575 132.474 18.4154 133.37 18.7311 133.942C19.0468 134.514 19.529 134.8 20.1775 134.8ZM27.8013 136.118L26.9309 135.606L32.2173 126.428L33.0877 126.94L27.8013 136.118ZM26.8797 132.163C26.18 132.163 25.6338 131.92 25.2413 131.433C24.8488 130.938 24.6525 130.26 24.6525 129.398C24.6525 128.536 24.8488 127.862 25.2413 127.376C25.6424 126.889 26.1885 126.646 26.8797 126.646C27.5709 126.646 28.1128 126.889 28.5053 127.376C28.9064 127.862 29.1069 128.536 29.1069 129.398C29.1069 130.26 28.9106 130.938 28.5181 131.433C28.1256 131.92 27.5794 132.163 26.8797 132.163ZM26.8797 131.254C27.2381 131.254 27.5154 131.1 27.7117 130.793C27.9165 130.486 28.0189 130.021 28.0189 129.398C28.0189 128.775 27.9165 128.31 27.7117 128.003C27.5154 127.696 27.2381 127.542 26.8797 127.542C26.5213 127.542 26.2397 127.696 26.0349 128.003C25.8386 128.31 25.7405 128.775 25.7405 129.398C25.7405 130.029 25.8386 130.499 26.0349 130.806C26.2397 131.105 26.5213 131.254 26.8797 131.254ZM33.1389 135.9C32.4477 135.9 31.9058 135.657 31.5133 135.171C31.1208 134.684 30.9245 134.006 30.9245 133.136C30.9245 132.282 31.1208 131.612 31.5133 131.126C31.9058 130.631 32.4477 130.384 33.1389 130.384C33.8386 130.384 34.3848 130.631 34.7773 131.126C35.1698 131.612 35.3661 132.282 35.3661 133.136C35.3661 134.006 35.1698 134.684 34.7773 135.171C34.3848 135.657 33.8386 135.9 33.1389 135.9ZM33.1389 135.004C33.4973 135.004 33.7746 134.851 33.9709 134.544C34.1757 134.236 34.2781 133.767 34.2781 133.136C34.2781 132.521 34.1757 132.06 33.9709 131.753C33.7746 131.446 33.4973 131.292 33.1389 131.292C32.7805 131.292 32.4989 131.446 32.2941 131.753C32.0978 132.052 31.9997 132.513 31.9997 133.136C31.9997 133.767 32.0978 134.236 32.2941 134.544C32.4989 134.851 32.7805 135.004 33.1389 135.004Z" fill="#3E465B"/>
<rect x="52" y="137.785" width="450" height="1" fill="#E3E6ED"/>
<path d="M9.7505 176.785V175.8L12.7585 172.574C13.1766 172.122 13.4753 171.712 13.6545 171.345C13.8422 170.978 13.9361 170.607 13.9361 170.232C13.9361 169.259 13.3644 168.772 12.2209 168.772C11.3505 168.772 10.5697 169.101 9.8785 169.758L9.4049 168.747C9.74623 168.414 10.1814 168.149 10.7105 167.953C11.2396 167.748 11.79 167.646 12.3617 167.646C13.2918 167.646 14.0044 167.859 14.4993 168.286C15.0028 168.713 15.2545 169.323 15.2545 170.116C15.2545 170.654 15.1222 171.179 14.8577 171.691C14.6017 172.203 14.1964 172.749 13.6417 173.329L11.4145 175.672H15.6129V176.785H9.7505ZM20.1775 176.9C19.1279 176.9 18.3258 176.504 17.7711 175.71C17.225 174.908 16.9519 173.76 16.9519 172.267C16.9519 170.748 17.225 169.6 17.7711 168.824C18.3258 168.038 19.1279 167.646 20.1775 167.646C21.2356 167.646 22.0378 168.038 22.5839 168.824C23.13 169.6 23.4031 170.744 23.4031 172.254C23.4031 173.756 23.1258 174.908 22.5711 175.71C22.025 176.504 21.2271 176.9 20.1775 176.9ZM20.1775 175.8C20.826 175.8 21.3082 175.514 21.6239 174.942C21.9396 174.37 22.0975 173.474 22.0975 172.254C22.0975 171.034 21.9396 170.146 21.6239 169.592C21.3167 169.028 20.8346 168.747 20.1775 168.747C19.529 168.747 19.0468 169.028 18.7311 169.592C18.4154 170.155 18.2575 171.042 18.2575 172.254C18.2575 173.474 18.4154 174.37 18.7311 174.942C19.0468 175.514 19.529 175.8 20.1775 175.8ZM27.8013 177.118L26.9309 176.606L32.2173 167.428L33.0877 167.94L27.8013 177.118ZM26.8797 173.163C26.18 173.163 25.6338 172.92 25.2413 172.433C24.8488 171.938 24.6525 171.26 24.6525 170.398C24.6525 169.536 24.8488 168.862 25.2413 168.376C25.6424 167.889 26.1885 167.646 26.8797 167.646C27.5709 167.646 28.1128 167.889 28.5053 168.376C28.9064 168.862 29.1069 169.536 29.1069 170.398C29.1069 171.26 28.9106 171.938 28.5181 172.433C28.1256 172.92 27.5794 173.163 26.8797 173.163ZM26.8797 172.254C27.2381 172.254 27.5154 172.1 27.7117 171.793C27.9165 171.486 28.0189 171.021 28.0189 170.398C28.0189 169.775 27.9165 169.31 27.7117 169.003C27.5154 168.696 27.2381 168.542 26.8797 168.542C26.5213 168.542 26.2397 168.696 26.0349 169.003C25.8386 169.31 25.7405 169.775 25.7405 170.398C25.7405 171.029 25.8386 171.499 26.0349 171.806C26.2397 172.105 26.5213 172.254 26.8797 172.254ZM33.1389 176.9C32.4477 176.9 31.9058 176.657 31.5133 176.171C31.1208 175.684 30.9245 175.006 30.9245 174.136C30.9245 173.282 31.1208 172.612 31.5133 172.126C31.9058 171.631 32.4477 171.384 33.1389 171.384C33.8386 171.384 34.3848 171.631 34.7773 172.126C35.1698 172.612 35.3661 173.282 35.3661 174.136C35.3661 175.006 35.1698 175.684 34.7773 176.171C34.3848 176.657 33.8386 176.9 33.1389 176.9ZM33.1389 176.004C33.4973 176.004 33.7746 175.851 33.9709 175.544C34.1757 175.236 34.2781 174.767 34.2781 174.136C34.2781 173.521 34.1757 173.06 33.9709 172.753C33.7746 172.446 33.4973 172.292 33.1389 172.292C32.7805 172.292 32.4989 172.446 32.2941 172.753C32.0978 173.052 31.9997 173.513 31.9997 174.136C31.9997 174.767 32.0978 175.236 32.2941 175.544C32.4989 175.851 32.7805 176.004 33.1389 176.004Z" fill="#3E465B"/>
<rect x="52" y="178.785" width="450" height="1" fill="#E3E6ED"/>
<path d="M20.1775 217.9C19.1279 217.9 18.3258 217.504 17.7711 216.71C17.225 215.908 16.9519 214.76 16.9519 213.267C16.9519 211.748 17.225 210.6 17.7711 209.824C18.3258 209.038 19.1279 208.646 20.1775 208.646C21.2356 208.646 22.0378 209.038 22.5839 209.824C23.13 210.6 23.4031 211.744 23.4031 213.254C23.4031 214.756 23.1258 215.908 22.5711 216.71C22.025 217.504 21.2271 217.9 20.1775 217.9ZM20.1775 216.8C20.826 216.8 21.3082 216.514 21.6239 215.942C21.9396 215.37 22.0975 214.474 22.0975 213.254C22.0975 212.034 21.9396 211.146 21.6239 210.592C21.3167 210.028 20.8346 209.747 20.1775 209.747C19.529 209.747 19.0468 210.028 18.7311 210.592C18.4154 211.155 18.2575 212.042 18.2575 213.254C18.2575 214.474 18.4154 215.37 18.7311 215.942C19.0468 216.514 19.529 216.8 20.1775 216.8ZM27.8013 218.118L26.9309 217.606L32.2173 208.428L33.0877 208.94L27.8013 218.118ZM26.8797 214.163C26.18 214.163 25.6338 213.92 25.2413 213.433C24.8488 212.938 24.6525 212.26 24.6525 211.398C24.6525 210.536 24.8488 209.862 25.2413 209.376C25.6424 208.889 26.1885 208.646 26.8797 208.646C27.5709 208.646 28.1128 208.889 28.5053 209.376C28.9064 209.862 29.1069 210.536 29.1069 211.398C29.1069 212.26 28.9106 212.938 28.5181 213.433C28.1256 213.92 27.5794 214.163 26.8797 214.163ZM26.8797 213.254C27.2381 213.254 27.5154 213.1 27.7117 212.793C27.9165 212.486 28.0189 212.021 28.0189 211.398C28.0189 210.775 27.9165 210.31 27.7117 210.003C27.5154 209.696 27.2381 209.542 26.8797 209.542C26.5213 209.542 26.2397 209.696 26.0349 210.003C25.8386 210.31 25.7405 210.775 25.7405 211.398C25.7405 212.029 25.8386 212.499 26.0349 212.806C26.2397 213.105 26.5213 213.254 26.8797 213.254ZM33.1389 217.9C32.4477 217.9 31.9058 217.657 31.5133 217.171C31.1208 216.684 30.9245 216.006 30.9245 215.136C30.9245 214.282 31.1208 213.612 31.5133 213.126C31.9058 212.631 32.4477 212.384 33.1389 212.384C33.8386 212.384 34.3848 212.631 34.7773 213.126C35.1698 213.612 35.3661 214.282 35.3661 215.136C35.3661 216.006 35.1698 216.684 34.7773 217.171C34.3848 217.657 33.8386 217.9 33.1389 217.9ZM33.1389 217.004C33.4973 217.004 33.7746 216.851 33.9709 216.544C34.1757 216.236 34.2781 215.767 34.2781 215.136C34.2781 214.521 34.1757 214.06 33.9709 213.753C33.7746 213.446 33.4973 213.292 33.1389 213.292C32.7805 213.292 32.4989 213.446 32.2941 213.753C32.0978 214.052 31.9997 214.513 31.9997 215.136C31.9997 215.767 32.0978 216.236 32.2941 216.544C32.4989 216.851 32.7805 217.004 33.1389 217.004Z" fill="#3E465B"/>
<rect x="52" y="219.785" width="450" height="1" fill="#E3E6ED"/>
<path d="M53 86.5753L94.1181 29.183H134.475H174.832L216.457 49.9214L257.068 33.0413L298.694 189.785H380.168H420.525L461.897 34.9704L502 12.7852" stroke="#85A9FF" stroke-linejoin="round" stroke-dasharray="4 4"/>
<path d="M53 138.724L93.9337 48.0664L134.613 96.4062L175.293 48.0664L216.227 73.9453L257.669 183.741L298.348 93.151L338.011 120.332L379.707 93.151L420.641 138.724L461.321 184.785L502 47.5781" stroke="#3874FF" stroke-width="3" stroke-linejoin="round"/>
</svg>
