<svg width="29" height="33" viewBox="0 0 29 33" fill="none" xmlns="http://www.w3.org/2000/svg">
<rect x="0.200012" y="11.8125" width="20.7558" height="20.7558" rx="3.89172" transform="rotate(-7.45329 0.200012 11.8125)" fill="#E5EDFF"/>
<g style="mix-blend-mode:multiply">
<path d="M16.6939 12.5C13.9205 12.5 11.6939 10.2734 11.6939 7.5C11.6939 4.76562 13.9205 2.5 16.6939 2.5C19.4283 2.5 21.6939 4.76562 21.6939 7.5C21.6939 10.2734 19.4283 12.5 16.6939 12.5ZM18.647 14.375C22.397 14.375 25.4439 17.4219 25.4439 21.1719C25.4439 21.9141 24.8189 22.5 24.0767 22.5H9.27203C8.52985 22.5 7.94391 21.9141 7.94391 21.1719C7.94391 17.4219 10.9517 14.375 14.7017 14.375H18.647Z" fill="#3874FF"/>
</g>
</svg>
