<svg width="33" height="33" viewBox="0 0 33 33" fill="none" xmlns="http://www.w3.org/2000/svg">
<rect y="11.8125" width="20.7558" height="20.7558" rx="3.89172" transform="rotate(-7.45329 0 11.8125)" fill="#E5EDFF"/>
<g style="mix-blend-mode:multiply">
<path d="M20.2048 15C17.9783 15 16.1423 13.2031 16.1814 10.9375C16.1814 8.71094 17.9783 6.875 20.2048 6.875C22.4314 6.875 24.2673 8.71094 24.2673 10.9375C24.2673 13.2031 22.4705 15 20.2048 15ZM22.158 16.25C25.2439 16.25 27.7439 18.5938 27.7439 21.4844C27.7439 22.0703 27.2361 22.5 26.6111 22.5H13.8376C13.2126 22.5 12.7439 22.0703 12.7439 21.4844C12.7439 18.5938 15.2048 16.25 18.2908 16.25H22.158ZM27.7439 8.75C25.9861 8.75 24.6189 7.38281 24.6189 5.625C24.6189 3.90625 25.9861 2.5 27.7439 2.5C29.4626 2.5 30.8689 3.90625 30.8689 5.625C30.8689 7.38281 29.4626 8.75 27.7439 8.75ZM14.8923 10.9375C14.8923 12.2656 15.4001 13.4766 16.2205 14.375H8.40796C8.01733 14.375 7.7439 14.0625 7.7439 13.6719C7.7439 11.6406 9.26733 10 11.1814 10H13.5642C14.072 10 14.5408 10.1172 14.9705 10.3516C14.9314 10.5469 14.8923 10.7422 14.8923 10.9375ZM12.7439 8.75C10.9861 8.75 9.6189 7.38281 9.6189 5.625C9.6189 3.90625 10.9861 2.5 12.7439 2.5C14.4626 2.5 15.8689 3.90625 15.8689 5.625C15.8689 7.38281 14.4626 8.75 12.7439 8.75ZM29.2673 10C31.1814 10 32.7439 11.6406 32.7439 13.6719C32.7439 14.0625 32.4314 14.375 32.0408 14.375H24.2283C25.0486 13.4766 25.5173 12.2656 25.5173 10.9375C25.5173 10.7422 25.4783 10.5469 25.4783 10.3516C25.908 10.1562 26.3767 10 26.8845 10H29.2673Z" fill="#3874FF"/>
</g>
</svg>
