<svg width="29" height="33" viewBox="0 0 29 33" fill="none" xmlns="http://www.w3.org/2000/svg">
<rect x="0.400024" y="11.8125" width="20.7558" height="20.7558" rx="3.89172" transform="rotate(-7.45329 0.400024 11.8125)" fill="#E5EDFF"/>
<g style="mix-blend-mode:multiply">
<path d="M18.1439 3.75V4.53125C20.9955 5.11719 23.1439 7.61719 23.1439 10.625V11.3672C23.1439 13.2031 23.808 15 25.0189 16.3672L25.2924 16.6797C25.6439 17.0703 25.722 17.5781 25.5267 18.0469C25.3314 18.4766 24.8627 18.75 24.3939 18.75H9.39392C8.88611 18.75 8.41736 18.4766 8.22205 18.0469C8.02673 17.5781 8.10486 17.0703 8.45642 16.6797L8.72986 16.3672C9.9408 15 10.6439 13.2031 10.6439 11.3672V10.625C10.6439 7.61719 12.7533 5.11719 15.6439 4.53125V3.75C15.6439 3.08594 16.1908 2.5 16.8939 2.5C17.558 2.5 18.1439 3.08594 18.1439 3.75ZM16.8939 22.5C16.2299 22.5 15.5658 22.2656 15.097 21.7969C14.6283 21.3281 14.3939 20.6641 14.3939 20H19.3939C19.3939 20.6641 19.1205 21.3281 18.6517 21.7969C18.183 22.2656 17.5189 22.5 16.8939 22.5Z" fill="#3874FF"/>
</g>
</svg>
