<svg width="30" height="33" viewBox="0 0 30 33" fill="none" xmlns="http://www.w3.org/2000/svg">
<rect x="0.600098" y="11.8125" width="20.7558" height="20.7558" rx="3.89172" transform="rotate(-7.45329 0.600098 11.8125)" fill="#E5EDFF"/>
<g style="mix-blend-mode:multiply">
<path d="M21.469 2.5C22.4846 2.5 23.344 3.35938 23.344 4.375V20.625C23.344 21.6797 22.4846 22.5 21.469 22.5H17.719V19.375C17.719 18.3594 16.8596 17.5 15.844 17.5C14.7893 17.5 13.969 18.3594 13.969 19.375V22.5H10.219C9.16431 22.5 8.34399 21.6797 8.34399 20.625V4.375C8.34399 3.35938 9.16431 2.5 10.219 2.5H21.469ZM10.844 13.125C10.844 13.4766 11.1174 13.75 11.469 13.75H12.719C13.0315 13.75 13.344 13.4766 13.344 13.125V11.875C13.344 11.5625 13.0315 11.25 12.719 11.25H11.469C11.1174 11.25 10.844 11.5625 10.844 11.875V13.125ZM15.219 11.25C14.8674 11.25 14.594 11.5625 14.594 11.875V13.125C14.594 13.4766 14.8674 13.75 15.219 13.75H16.469C16.7815 13.75 17.094 13.4766 17.094 13.125V11.875C17.094 11.5625 16.7815 11.25 16.469 11.25H15.219ZM18.344 13.125C18.344 13.4766 18.6174 13.75 18.969 13.75H20.219C20.5315 13.75 20.844 13.4766 20.844 13.125V11.875C20.844 11.5625 20.5315 11.25 20.219 11.25H18.969C18.6174 11.25 18.344 11.5625 18.344 11.875V13.125ZM11.469 6.25C11.1174 6.25 10.844 6.5625 10.844 6.875V8.125C10.844 8.47656 11.1174 8.75 11.469 8.75H12.719C13.0315 8.75 13.344 8.47656 13.344 8.125V6.875C13.344 6.5625 13.0315 6.25 12.719 6.25H11.469ZM14.594 8.125C14.594 8.47656 14.8674 8.75 15.219 8.75H16.469C16.7815 8.75 17.094 8.47656 17.094 8.125V6.875C17.094 6.5625 16.7815 6.25 16.469 6.25H15.219C14.8674 6.25 14.594 6.5625 14.594 6.875V8.125ZM18.969 6.25C18.6174 6.25 18.344 6.5625 18.344 6.875V8.125C18.344 8.47656 18.6174 8.75 18.969 8.75H20.219C20.5315 8.75 20.844 8.47656 20.844 8.125V6.875C20.844 6.5625 20.5315 6.25 20.219 6.25H18.969Z" fill="#3874FF"/>
</g>
</svg>
