<svg width="30" height="33" viewBox="0 0 30 33" fill="none" xmlns="http://www.w3.org/2000/svg">
<rect x="0.800049" y="11.8125" width="20.7558" height="20.7558" rx="3.89172" transform="rotate(-7.45329 0.800049 11.8125)" fill="#E5EDFF"/>
<g style="mix-blend-mode:multiply">
<path d="M14.6377 17.5391L13.4268 16.3281C13.1143 16.0156 12.9971 15.5469 13.1143 15.0781C13.2314 14.7266 13.3877 14.2969 13.583 13.75H9.48145C9.12988 13.75 8.81738 13.5938 8.66113 13.2812C8.46582 13.0078 8.46582 12.6562 8.66113 12.3438L10.6924 8.90625C11.2002 8.04688 12.1377 7.5 13.1143 7.5H16.3564C16.4346 7.34375 16.5127 7.22656 16.6299 7.07031C19.833 2.34375 24.5986 2.1875 27.4111 2.73438C27.8799 2.8125 28.2314 3.16406 28.3096 3.63281C28.8564 6.44531 28.7002 11.2109 23.9736 14.4141C23.8174 14.5312 23.6611 14.6094 23.5439 14.6875V17.9297C23.5439 18.9062 22.9971 19.8438 22.1377 20.3516L18.7002 22.3828C18.3877 22.5391 18.0361 22.5781 17.7627 22.3828C17.4502 22.2266 17.2939 21.9141 17.2939 21.5625V17.3828C16.708 17.5781 16.2393 17.7344 15.8877 17.8516C15.458 18.0078 14.9502 17.8906 14.6377 17.5391ZM23.5439 9.0625C24.4033 9.0625 25.1064 8.39844 25.1064 7.5C25.1064 6.64062 24.4033 5.9375 23.5439 5.9375C22.6455 5.9375 21.9814 6.64062 21.9814 7.5C21.9814 8.39844 22.6455 9.0625 23.5439 9.0625Z" fill="#3874FF"/>
</g>
</svg>
